<?xml version="1.0" encoding="UTF-8" standalone="no"?>
<!-- Created with Inkscape (http://www.inkscape.org/) -->

<svg
   xmlns:dc="http://purl.org/dc/elements/1.1/"
   xmlns:cc="http://creativecommons.org/ns#"
   xmlns:rdf="http://www.w3.org/1999/02/22-rdf-syntax-ns#"
   xmlns:svg="http://www.w3.org/2000/svg"
   xmlns="http://www.w3.org/2000/svg"
   xmlns:sodipodi="http://sodipodi.sourceforge.net/DTD/sodipodi-0.dtd"
   xmlns:inkscape="http://www.inkscape.org/namespaces/inkscape"
   width="600"
   height="280"
   id="svg4493"
   version="1.1"
   inkscape:version="0.48.4 r9939"
   sodipodi:docname="sheet_bacground.svg"
   inkscape:export-filename="/home/leo/projects/music/pygame_mc/assets/images/sheet/sheet_background.png"
   inkscape:export-xdpi="90"
   inkscape:export-ydpi="90">
  <defs
     id="defs4495" />
  <sodipodi:namedview
     id="base"
     pagecolor="#ffffff"
     bordercolor="#666666"
     borderopacity="1.0"
     inkscape:pageopacity="0.0"
     inkscape:pageshadow="2"
     inkscape:zoom="1.979899"
     inkscape:cx="392.84676"
     inkscape:cy="127.17367"
     inkscape:document-units="px"
     inkscape:current-layer="layer1"
     showgrid="false"
     inkscape:window-width="1855"
     inkscape:window-height="1056"
     inkscape:window-x="65"
     inkscape:window-y="24"
     inkscape:window-maximized="1" />
  <metadata
     id="metadata4498">
    <rdf:RDF>
      <cc:Work
         rdf:about="">
        <dc:format>image/svg+xml</dc:format>
        <dc:type
           rdf:resource="http://purl.org/dc/dcmitype/StillImage" />
        <dc:title></dc:title>
      </cc:Work>
    </rdf:RDF>
  </metadata>
  <g
     inkscape:label="Layer 1"
     inkscape:groupmode="layer"
     id="layer1"
     transform="translate(0,-772.36217)">
    <g
       id="g5464">
      <path
         inkscape:tile-y0="869.50003"
         inkscape:tile-x0="0.5"
         inkscape:connector-curvature="0"
         id="use5137"
         d="m 0.51078064,881.86218 c 599.85711936,0 598.96973936,0 598.96973936,0"
         style="fill:none;stroke:#000000;stroke-width:0.99999994px;stroke-linecap:butt;stroke-linejoin:miter;stroke-opacity:1" />
      <path
         inkscape:tile-y0="869.50003"
         inkscape:tile-x0="0.5"
         inkscape:connector-curvature="0"
         id="use5139"
         d="m 0.51078064,891.86219 c 599.85711936,0 598.96973936,0 598.96973936,0"
         style="fill:none;stroke:#000000;stroke-width:0.99999994px;stroke-linecap:butt;stroke-linejoin:miter;stroke-opacity:1" />
      <path
         inkscape:tile-y0="869.50003"
         inkscape:tile-x0="0.5"
         inkscape:connector-curvature="0"
         id="use5141"
         d="m 0.51078064,901.86218 c 599.85711936,0 598.96973936,0 598.96973936,0"
         style="fill:none;stroke:#000000;stroke-width:0.99999994px;stroke-linecap:butt;stroke-linejoin:miter;stroke-opacity:1" />
      <path
         inkscape:tile-y0="869.50003"
         inkscape:tile-x0="0.5"
         inkscape:connector-curvature="0"
         id="use5143"
         d="m 0.51078064,911.86219 c 599.85711936,0 598.96973936,0 598.96973936,0"
         style="fill:none;stroke:#000000;stroke-width:0.99999994px;stroke-linecap:butt;stroke-linejoin:miter;stroke-opacity:1" />
      <path
         inkscape:tile-y0="869.50003"
         inkscape:tile-x0="0.5"
         inkscape:connector-curvature="0"
         id="use5145"
         d="m 0.51078064,921.86219 c 599.85711936,0 598.96973936,0 598.96973936,0"
         style="fill:none;stroke:#000000;stroke-width:0.99999994px;stroke-linecap:butt;stroke-linejoin:miter;stroke-opacity:1" />
    </g>
    <path
       inkscape:tile-y0="869.50003"
       inkscape:tile-x0="0.5"
       inkscape:connector-curvature="0"
       id="use5147"
       d="m 0.50000756,931.86219 c 599.88741244,0 598.99998244,0 598.99998244,0"
       style="fill:#000000;stroke:#000000;stroke-width:1.00002514999999992px;stroke-linecap:butt;stroke-linejoin:miter;stroke-opacity:1;opacity:0.34999999999999998;fill-opacity:1" />
    <g
       id="g5457">
      <path
         inkscape:tile-y0="869.50003"
         inkscape:tile-x0="0.5"
         inkscape:connector-curvature="0"
         id="use5149"
         d="m 0.51078064,941.86219 c 599.85711936,0 598.96973936,0 598.96973936,0"
         style="fill:none;stroke:#000000;stroke-width:0.99999994px;stroke-linecap:butt;stroke-linejoin:miter;stroke-opacity:1" />
      <path
         inkscape:tile-y0="869.50003"
         inkscape:tile-x0="0.5"
         inkscape:connector-curvature="0"
         id="use5151"
         d="m 0.51078064,951.86219 c 599.85711936,0 598.96973936,0 598.96973936,0"
         style="fill:none;stroke:#000000;stroke-width:0.99999994px;stroke-linecap:butt;stroke-linejoin:miter;stroke-opacity:1" />
      <path
         inkscape:tile-y0="869.50003"
         inkscape:tile-x0="0.5"
         inkscape:connector-curvature="0"
         id="use5153"
         d="m 0.51078064,961.8622 c 599.85711936,0 598.96973936,0 598.96973936,0"
         style="fill:none;stroke:#000000;stroke-width:0.99999994px;stroke-linecap:butt;stroke-linejoin:miter;stroke-opacity:1" />
      <path
         inkscape:tile-y0="869.50003"
         inkscape:tile-x0="0.5"
         inkscape:connector-curvature="0"
         id="use5155"
         d="m 0.51078064,971.8622 c 599.85711936,0 598.96973936,0 598.96973936,0"
         style="fill:none;stroke:#000000;stroke-width:0.99999994px;stroke-linecap:butt;stroke-linejoin:miter;stroke-opacity:1" />
      <path
         inkscape:tile-y0="869.50003"
         inkscape:tile-x0="0.5"
         inkscape:connector-curvature="0"
         id="use5157"
         d="m 0.51078064,981.86219 c 599.85711936,0 598.96973936,0 598.96973936,0"
         style="fill:none;stroke:#000000;stroke-width:0.99999994px;stroke-linecap:butt;stroke-linejoin:miter;stroke-opacity:1" />
    </g>
    <path
       inkscape:tile-y0="869.50003"
       inkscape:tile-x0="0.5"
       inkscape:connector-curvature="0"
       id="use5125"
       d="m 0.51078064,821.86218 c 599.85711936,0 598.96973936,0 598.96973936,0"
       style="opacity:0.35;fill:none;stroke:#000000;stroke-width:0.99999994px;stroke-linecap:butt;stroke-linejoin:miter;stroke-opacity:1" />
    <path
       inkscape:tile-y0="869.50003"
       inkscape:tile-x0="0.5"
       inkscape:connector-curvature="0"
       id="use5127"
       d="m 0.51078064,831.86219 c 599.85711936,0 598.96973936,0 598.96973936,0"
       style="opacity:0.35;fill:none;stroke:#000000;stroke-width:0.99999994px;stroke-linecap:butt;stroke-linejoin:miter;stroke-opacity:1" />
    <path
       inkscape:tile-y0="869.50003"
       inkscape:tile-x0="0.5"
       inkscape:connector-curvature="0"
       id="use5129"
       d="m 0.51078064,841.86219 c 599.85711936,0 598.96973936,0 598.96973936,0"
       style="opacity:0.35;fill:none;stroke:#000000;stroke-width:0.99999994px;stroke-linecap:butt;stroke-linejoin:miter;stroke-opacity:1" />
    <path
       inkscape:tile-y0="869.50003"
       inkscape:tile-x0="0.5"
       inkscape:connector-curvature="0"
       id="use5131"
       d="m 0.51078064,851.86218 c 599.85711936,0 598.96973936,0 598.96973936,0"
       style="opacity:0.35;fill:none;stroke:#000000;stroke-width:0.99999994px;stroke-linecap:butt;stroke-linejoin:miter;stroke-opacity:1" />
    <path
       inkscape:tile-y0="869.50003"
       inkscape:tile-x0="0.5"
       inkscape:connector-curvature="0"
       id="use5133"
       d="m 0.51078064,861.86219 c 599.85711936,0 598.96973936,0 598.96973936,0"
       style="opacity:0.35;fill:none;stroke:#000000;stroke-width:0.99999994px;stroke-linecap:butt;stroke-linejoin:miter;stroke-opacity:1" />
    <path
       inkscape:tile-y0="869.50003"
       inkscape:tile-x0="0.5"
       inkscape:connector-curvature="0"
       id="use5135"
       d="m 0.51078064,871.86218 c 599.85711936,0 598.96973936,0 598.96973936,0"
       style="opacity:0.35;fill:none;stroke:#000000;stroke-width:0.99999994px;stroke-linecap:butt;stroke-linejoin:miter;stroke-opacity:1" />
    <path
       inkscape:tile-y0="869.50003"
       inkscape:tile-x0="0.5"
       inkscape:connector-curvature="0"
       id="use5169"
       d="m 0.51078064,811.86219 c 599.85711936,0 598.96973936,0 598.96973936,0"
       style="opacity:0.35;fill:none;stroke:#000000;stroke-width:0.99999994px;stroke-linecap:butt;stroke-linejoin:miter;stroke-opacity:1" />
    <path
       inkscape:tile-y0="869.50003"
       inkscape:tile-x0="0.5"
       inkscape:connector-curvature="0"
       id="use5203"
       d="m 0.50000539,781.86216 c 599.87871461,0 598.99130461,0 598.99130461,0"
       style="opacity:0.35;fill:none;stroke:#000000;stroke-width:1.00001788px;stroke-linecap:butt;stroke-linejoin:miter;stroke-opacity:1" />
    <path
       inkscape:tile-y0="869.50003"
       inkscape:tile-x0="0.5"
       inkscape:connector-curvature="0"
       id="use5205"
       d="m 0.51078064,791.86216 c 599.85711936,0 598.96973936,0 598.96973936,0"
       style="opacity:0.35;fill:none;stroke:#000000;stroke-width:0.99999994px;stroke-linecap:butt;stroke-linejoin:miter;stroke-opacity:1" />
    <path
       inkscape:tile-y0="869.50003"
       inkscape:tile-x0="0.5"
       inkscape:connector-curvature="0"
       id="use5207"
       d="m 0.51078064,801.86217 c 599.85711936,0 598.96973936,0 598.96973936,0"
       style="opacity:0.35;fill:none;stroke:#000000;stroke-width:0.99999994px;stroke-linecap:butt;stroke-linejoin:miter;stroke-opacity:1" />
    <path
       inkscape:tile-y0="869.50003"
       inkscape:tile-x0="0.5"
       inkscape:connector-curvature="0"
       id="use5159"
       d="m 0.51078064,991.8622 c 599.85711936,0 598.96973936,0 598.96973936,0"
       style="fill:none;stroke:#000000;stroke-width:0.99999994000000003px;stroke-linecap:butt;stroke-linejoin:miter;stroke-opacity:1;opacity:0.35" />
    <path
       inkscape:tile-y0="869.50003"
       inkscape:tile-x0="0.5"
       inkscape:connector-curvature="0"
       id="use5161"
       d="m 0.51078064,1001.8622 c 599.85711936,0 598.96973936,0 598.96973936,0"
       style="fill:none;stroke:#000000;stroke-width:0.99999994000000003px;stroke-linecap:butt;stroke-linejoin:miter;stroke-opacity:1;opacity:0.35" />
    <path
       inkscape:tile-y0="869.50003"
       inkscape:tile-x0="0.5"
       inkscape:connector-curvature="0"
       id="use5163"
       d="m 0.51078064,1011.8622 c 599.85711936,0 598.96973936,0 598.96973936,0"
       style="fill:none;stroke:#000000;stroke-width:0.99999994000000003px;stroke-linecap:butt;stroke-linejoin:miter;stroke-opacity:1;opacity:0.35" />
    <path
       inkscape:tile-y0="869.50003"
       inkscape:tile-x0="0.5"
       inkscape:connector-curvature="0"
       id="use5165"
       d="m 0.51078064,1031.8622 c 599.85711936,0 598.96973936,0 598.96973936,0"
       style="opacity:0.35;fill:none;stroke:#000000;stroke-width:0.99999994px;stroke-linecap:butt;stroke-linejoin:miter;stroke-opacity:1" />
    <path
       inkscape:tile-y0="869.50003"
       inkscape:tile-x0="0.5"
       inkscape:connector-curvature="0"
       id="use5209"
       d="m 0.50001079,1041.8622 c 599.87871921,0 598.99129921,0 598.99129921,0"
       style="opacity:0.35;fill:none;stroke:#000000;stroke-width:1.00001788px;stroke-linecap:butt;stroke-linejoin:miter;stroke-opacity:1" />
    <g
       id="g1876"
       transform="matrix(0.8179237,0,0,0.70440019,-19.477074,875.72125)">
      <path
         inkscape:connector-curvature="0"
         sodipodi:nodetypes="cssssssssscsssssssssc"
         id="path1947"
         d="m 39.708934,63.678683 c -0.39184,2.091967 1.790672,6.436378 6.18165,6.578301 5.308336,0.171574 8.699737,-3.889078 7.119749,-10.516109 L 45.086538,23.171517 c -0.943257,-4.353257 -0.235257,-6.71442 0.268403,-8.121572 1.343735,-3.754196 4.700881,-5.3026408 5.518193,-4.100737 0.466629,0.686205 1.594908,3.894798 -1.616859,9.641613 -2.504897,4.482014 -14.15929,10.359317 -15.014575,20.87719 -0.740418,9.146238 8.833989,15.90129 17.097566,13.245729 5.48642,-1.763101 8.314699,-10.08972 4.918791,-14.384753 C 47.29624,28.994371 32.923702,46.341263 46.846564,51.0935 45.332604,49.90238 44.300646,48.980054 44.1085,47.852721 42.237755,36.876941 58.741182,39.774741 54.294493,50.18735 52.466001,54.469045 45.080341,55.297323 40.874269,51.477433 37.350853,48.277521 35.787387,42.113231 39.708327,37.687888 45.018831,31.694223 51.288782,26.31366 52.954064,18.108736 54.923313,8.4061491 48.493821,0.84188926 44.429027,10.385835 c -1.363934,3.202453 -1.872011,6.417239 -0.566021,12.577699 l 7.917543,37.347681 c 0.566837,2.673813 0.187362,6.353204 -2.308175,8.044259 -1.236187,0.83768 -5.61059,1.414194 -6.680799,-0.585382"
         style="fill:#000000;fill-opacity:1;fill-rule:nonzero;stroke:#000000;stroke-width:0.13309899;stroke-linecap:butt;stroke-linejoin:miter;stroke-miterlimit:4;stroke-opacity:1;stroke-dasharray:none" />
      <path
         transform="matrix(-1.08512,-0.02036848,0.02036848,-1.08512,90.68868,135.0572)"
         d="m 48.24903,64.584198 c 0,1.932281 -1.539963,3.498705 -3.439605,3.498705 -1.899641,0 -3.439605,-1.566424 -3.439605,-3.498705 0,-1.932281 1.539964,-3.498705 3.439605,-3.498705 1.899642,0 3.439605,1.566424 3.439605,3.498705 z"
         sodipodi:ry="3.4987047"
         sodipodi:rx="3.439605"
         sodipodi:cy="64.584198"
         sodipodi:cx="44.809425"
         id="path4608"
         style="fill:#000000;fill-opacity:1;stroke:#000000;stroke-width:0.12263672;stroke-miterlimit:4;stroke-opacity:1;stroke-dasharray:none"
         sodipodi:type="arc" />
    </g>
    <path
       inkscape:connector-curvature="0"
       style="fill:#131516;fill-rule:evenodd;stroke:#131516;stroke-width:0.54985368"
       id="path19"
       d="m 7.886232,970.66605 c 1.959803,-1.55786 3.423454,-2.73717 4.366145,-3.55249 0.94269,-0.80077 1.934995,-1.80537 2.952109,-2.99923 1.017113,-1.19388 1.872976,-2.54789 2.567591,-4.0475 0.545768,-1.10653 1.017113,-2.38774 1.401632,-3.84368 0.384519,-1.44138 0.582979,-2.83909 0.62019,-4.16398 0,-1.23755 -0.136441,-2.41685 -0.42173,-3.52338 -0.272883,-1.12106 -0.744228,-2.03831 -1.414035,-2.78083 -0.669806,-0.72797 -1.538074,-1.09195 -2.617206,-1.09195 -1.041922,0 -2.021823,0.2475 -2.939706,0.72796 -0.905478,0.49501 -1.550477,1.28122 -1.910187,2.38774 0,0.10191 -0.04962,0.23295 -0.124039,0.42221 0.02481,0.23296 0.124039,0.40767 0.310095,0.5387 0.186057,0.13104 0.347308,0.18928 0.496153,0.18928 0.07442,0 0.285289,-0.0438 0.607787,-0.13104 0.334903,-0.0874 0.607788,-0.14559 0.831057,-0.14559 0.657402,0 1.240382,0.27663 1.773746,0.81532 0.520959,0.5387 0.78144,1.19387 0.78144,1.96552 0,0.55325 -0.136441,1.07739 -0.396922,1.55786 -0.26048,0.48045 -0.620191,0.87355 -1.079132,1.15019 -0.458942,0.29118 -0.967498,0.42222 -1.513267,0.42222 -0.992305,0 -1.835765,-0.34943 -2.530379,-1.06284 -0.68221,-0.72797 -1.029516,-1.6452 -1.029516,-2.7954 0,-1.47049 0.384518,-2.73716 1.14115,-3.81455 0.769038,-1.07741 1.736536,-1.87817 2.927303,-2.41686 1.178363,-0.55326 2.36913,-0.81532 3.584703,-0.81532 1.327209,0 2.592399,0.39309 3.770763,1.19386 1.190766,0.78621 2.121052,1.87817 2.815666,3.23218 0.694614,1.36858 1.054326,2.82452 1.054326,4.39693 0,2.7954 -0.793846,5.38697 -2.381534,7.78927 -1.58769,2.4023 -3.547493,4.48429 -5.891815,6.26053 -1.562882,1.20843 -4.093261,2.83909 -7.578735,4.89195 L 7.886232,970.66605 z M 25.115139,948.1427 c 0,-0.52414 0.161249,-0.96093 0.483749,-1.31035 0.310095,-0.36399 0.694614,-0.5387 1.153556,-0.5387 0.396921,0 0.769037,0.20383 1.103939,0.59694 0.334904,0.37853 0.496154,0.82988 0.496154,1.3249 0,0.52413 -0.173654,0.97548 -0.496154,1.33946 -0.347306,0.34943 -0.731825,0.52414 -1.165959,0.52414 -0.458942,0 -0.831056,-0.17471 -1.128748,-0.56782 -0.297692,-0.37855 -0.446537,-0.82988 -0.446537,-1.36857 z m 0,7.62909 c 0,-0.52413 0.161249,-0.97547 0.458941,-1.32488 0.310095,-0.36399 0.694613,-0.53871 1.178364,-0.53871 0.396921,0 0.756633,0.18928 1.103939,0.58238 0.3225,0.3931 0.496154,0.81532 0.496154,1.28121 0,0.56782 -0.16125,1.01918 -0.471346,1.38316 -0.3225,0.36399 -0.694614,0.55325 -1.128747,0.55325 -0.483751,0 -0.868269,-0.18926 -1.178364,-0.53869 -0.297692,-0.34944 -0.458941,-0.81533 -0.458941,-1.39772 z"
       class="fil1 str1" />
    <path
       inkscape:tile-y0="869.50003"
       inkscape:tile-x0="0.5"
       inkscape:connector-curvature="0"
       id="use5163-3"
       d="m 0.49999997,1021.8622 c 599.85712003,0 598.96974003,0 598.96974003,0"
       style="fill:none;stroke:#000000;stroke-width:0.99999994000000003px;stroke-linecap:butt;stroke-linejoin:miter;stroke-opacity:1;opacity:0.35" />
    <path
       style="fill:none;stroke:#000000;stroke-width:1px;stroke-linecap:butt;stroke-linejoin:miter;stroke-opacity:1;opacity:0.4"
       d="m 75.761441,278.98985 c 0,-278.29702894 0,-277.7919527 0,-277.7919527"
       id="path6087"
       inkscape:connector-curvature="0"
       transform="translate(0,772.36217)" />
    <path
       inkscape:connector-curvature="0"
       id="path6089"
       d="m 249.09477,1051.352 c 0,-278.29701 0,-277.79193 0,-277.79193"
       style="opacity:0.4;fill:none;stroke:#000000;stroke-width:1px;stroke-linecap:butt;stroke-linejoin:miter;stroke-opacity:1" />
    <path
       style="opacity:0.4;fill:none;stroke:#000000;stroke-width:1px;stroke-linecap:butt;stroke-linejoin:miter;stroke-opacity:1"
       d="m 422.4281,1051.352 c 0,-278.29701 0,-277.79193 0,-277.79193"
       id="path6091"
       inkscape:connector-curvature="0" />
    <path
       inkscape:connector-curvature="0"
       id="path6093"
       d="m 595.7615,1051.352 c 0,-278.29701 0,-277.79193 0,-277.79193"
       style="opacity:0.4;fill:none;stroke:#000000;stroke-width:1px;stroke-linecap:butt;stroke-linejoin:miter;stroke-opacity:1" />
  </g>
</svg>
