<?xml version="1.0" encoding="UTF-8" standalone="no"?>
<!-- Created with Inkscape (http://www.inkscape.org/) -->

<svg
   xmlns:dc="http://purl.org/dc/elements/1.1/"
   xmlns:cc="http://creativecommons.org/ns#"
   xmlns:rdf="http://www.w3.org/1999/02/22-rdf-syntax-ns#"
   xmlns:svg="http://www.w3.org/2000/svg"
   xmlns="http://www.w3.org/2000/svg"
   xmlns:sodipodi="http://sodipodi.sourceforge.net/DTD/sodipodi-0.dtd"
   xmlns:inkscape="http://www.inkscape.org/namespaces/inkscape"
   id="svg2"
   version="1.1"
   inkscape:version="0.91 r13725"
   width="15.11811"
   height="15.11811"
   viewBox="0 0 15.11811 15.11811"
   sodipodi:docname="left_hand.svg">
  <metadata
     id="metadata8">
    <rdf:RDF>
      <cc:Work
         rdf:about="">
        <dc:format>image/svg+xml</dc:format>
        <dc:type
           rdf:resource="http://purl.org/dc/dcmitype/StillImage" />
        <dc:title></dc:title>
      </cc:Work>
    </rdf:RDF>
  </metadata>
  <defs
     id="defs6" />
  <sodipodi:namedview
     pagecolor="#ffffff"
     bordercolor="#666666"
     borderopacity="1"
     objecttolerance="10"
     gridtolerance="10"
     guidetolerance="10"
     inkscape:pageopacity="0"
     inkscape:pageshadow="2"
     inkscape:window-width="1366"
     inkscape:window-height="692"
     id="namedview4"
     showgrid="false"
     inkscape:zoom="35.189585"
     inkscape:cx="7.5590549"
     inkscape:cy="7.5590549"
     inkscape:window-x="0"
     inkscape:window-y="24"
     inkscape:window-maximized="1"
     inkscape:current-layer="svg2" />
  <path
     style="fill:#000000"
     d="m 6.7581744,11.588337 c -0.025183,-0.02518 -0.1078472,-0.05271 -0.1836988,-0.06116 -0.088731,-0.0099 -0.1511542,-0.0341 -0.1750452,-0.06788 -0.020423,-0.02888 -0.067928,-0.05251 -0.1055658,-0.05251 -0.039349,0 -0.08136,-0.02416 -0.09885,-0.05683 -0.01673,-0.03126 -0.047658,-0.05684 -0.068729,-0.05684 -0.021072,0 -0.045,-0.02557 -0.053175,-0.05683 -0.00817,-0.03126 -0.034226,-0.05683 -0.057891,-0.05683 -0.024361,0 -0.050871,-0.03571 -0.061106,-0.08231 -0.00994,-0.04527 -0.042928,-0.104795 -0.073302,-0.132283 -0.030373,-0.02749 -0.055224,-0.06433 -0.055224,-0.08188 0,-0.01755 -0.025576,-0.05381 -0.056835,-0.08057 -0.031259,-0.02677 -0.056835,-0.08196 -0.056835,-0.122646 0,-0.05008 -0.01836,-0.07878 -0.056835,-0.08884 -0.042559,-0.01113 -0.056835,-0.03876 -0.056835,-0.11001 0,-0.06407 -0.017466,-0.104495 -0.053474,-0.123765 C 5.503093,10.334829 5.4887177,10.28796 5.47959,10.144613 5.4719432,10.024522 5.4510557,9.9421182 5.4193936,9.907132 5.3849891,9.8691154 5.3709074,9.803854 5.3709074,9.6824241 c 0,-0.177392 -0.04343,-0.3501173 -0.088032,-0.3501173 -0.014101,0 -0.025638,-0.060827 -0.025638,-0.1351707 0,-0.1558705 -0.041407,-0.320829 -0.087718,-0.3494505 -0.017557,-0.010851 -0.038689,-0.1040334 -0.04696,-0.2070724 -0.010668,-0.1328964 -0.030448,-0.2012891 -0.068059,-0.235327 -0.029161,-0.026391 -0.053021,-0.08449 -0.053021,-0.1291095 0,-0.04596 -0.024636,-0.1022206 -0.056835,-0.1297898 -0.031259,-0.026765 -0.056835,-0.08346 -0.056835,-0.1259893 0,-0.042861 -0.023404,-0.093876 -0.052511,-0.1144589 -0.028881,-0.020423 -0.061199,-0.083853 -0.071817,-0.140955 -0.010618,-0.057102 -0.036525,-0.1104296 -0.05757,-0.1185055 -0.021046,-0.00808 -0.046622,-0.059227 -0.056835,-0.11367 -0.010213,-0.054443 -0.035789,-0.1055941 -0.056835,-0.11367 -0.021046,-0.00808 -0.046979,-0.061134 -0.05763,-0.1179074 -0.010651,-0.056773 -0.037493,-0.11018 -0.05965,-0.1186825 -0.022157,-0.0085 -0.048724,-0.062179 -0.059039,-0.1192808 -0.010314,-0.057102 -0.042632,-0.1266988 -0.071817,-0.1546597 -0.029185,-0.027961 -0.053063,-0.077095 -0.053063,-0.1091877 0,-0.032092 -0.025576,-0.090864 -0.056835,-0.1306039 -0.031259,-0.03974 -0.056835,-0.1000879 -0.056835,-0.1341071 0,-0.034019 -0.025576,-0.089305 -0.056835,-0.1228582 -0.033246,-0.035685 -0.056835,-0.1002851 -0.056835,-0.1556458 0,-0.052053 -0.025576,-0.1448063 -0.056835,-0.2061195 -0.073142,-0.1434639 -0.071651,-0.2143832 0.0071,-0.3378367 0.048424,-0.075908 0.083817,-0.1005208 0.1458586,-0.1014317 0.08249,-0.00121 0.188047,0.086582 0.188047,0.1564012 0,0.019381 0.017567,0.041979 0.039038,0.050218 0.021471,0.00824 0.047561,0.060411 0.057978,0.1159378 0.010417,0.055527 0.037473,0.1113293 0.060125,0.124006 0.022652,0.012677 0.049662,0.086555 0.060022,0.1641731 0.01036,0.077619 0.042464,0.1716221 0.071342,0.2088965 0.028878,0.037274 0.052505,0.099214 0.052505,0.1376436 0,0.045973 0.01944,0.074955 0.056835,0.084734 0.036067,0.00943 0.056835,0.038762 0.056835,0.080268 0,0.094964 0.028784,0.1553062 0.074084,0.1553062 0.021772,0 0.039586,0.023594 0.039586,0.05243 0,0.028837 0.025576,0.075576 0.056835,0.1038657 0.031259,0.028289 0.056835,0.066768 0.056835,0.085507 0,0.01874 0.03197,0.068568 0.071044,0.11073 0.039074,0.042162 0.071044,0.088787 0.071044,0.1036107 0,0.014824 0.018166,0.026954 0.040368,0.026954 0.022203,0 0.048503,0.037038 0.058446,0.082306 0.00994,0.045268 0.042928,0.1047955 0.073302,0.1322832 0.030373,0.027487 0.055224,0.06604 0.055224,0.085673 0,0.019633 0.039345,0.068802 0.087433,0.1092659 0.1156708,0.09733 0.2493961,0.09733 0.3650669,0 0.082687,-0.069577 0.087423,-0.084616 0.087246,-0.2770707 C 5.9389273,7.3486807 5.925503,7.2802528 5.8824224,7.2152031 5.8394275,7.150283 5.8259172,7.0817281 5.8257746,6.9277561 5.8256325,6.7743764 5.812866,6.7091997 5.7728943,6.6577899 5.732973,6.6064446 5.7162083,6.5211395 5.7037272,6.3058431 5.6946665,6.1495469 5.6679769,5.9577288 5.6444169,5.8795806 5.6119646,5.7719367 5.5994545,5.5514978 5.5928096,4.9702207 L 5.5840386,4.2029482 5.6634785,4.1248 c 0.043692,-0.042981 0.1012373,-0.077723 0.1278787,-0.077203 0.063285,0.00124 0.1676823,0.089499 0.2055713,0.1738037 0.016512,0.03674 0.048466,0.098769 0.071009,0.1378434 0.031151,0.053994 0.041088,0.1842173 0.041406,0.5426325 3.789e-4,0.4263617 0.00558,0.4762593 0.054232,0.5202891 0.041398,0.037465 0.05631,0.098133 0.064633,0.2629598 0.00815,0.1613327 0.022933,0.2231168 0.059857,0.2501162 0.032766,0.023959 0.049037,0.074891 0.049037,0.1534983 0,0.077257 0.018344,0.1359852 0.053436,0.1710778 0.039317,0.039317 0.056426,0.1063437 0.06475,0.25367 0.00774,0.1370621 0.026748,0.2172881 0.060234,0.2542897 0.027156,0.030007 0.04892,0.099436 0.04892,0.1560593 0,0.1673648 0.020465,0.1919048 0.1600399,0.1919048 0.110537,0 0.1292261,-0.00934 0.1563668,-0.078148 0.02139,-0.054229 0.026653,-0.528508 0.017195,-1.5495429 -0.012115,-1.3078605 -0.018777,-1.477083 -0.059946,-1.5225738 -0.060064,-0.06637 -0.062522,-0.2962611 -0.00369,-0.3450876 0.023445,-0.019457 0.042626,-0.059703 0.042626,-0.089435 0,-0.080923 0.1204876,-0.1157443 0.2701208,-0.078066 0.1034923,0.02606 0.1275573,0.045215 0.1425479,0.1134666 0.00992,0.045163 0.036538,0.092468 0.059152,0.1051239 0.028719,0.016072 0.048615,0.1093382 0.065987,0.3093303 0.013679,0.1574762 0.038548,0.3118783 0.055266,0.3431158 0.016718,0.031237 0.043956,0.200586 0.060529,0.37633 0.016573,0.175744 0.045726,0.3467453 0.064784,0.3800029 0.024638,0.042994 0.037421,0.3191493 0.044237,0.9556196 0.00601,0.5611174 0.020567,0.9084066 0.039014,0.9306731 0.038041,0.045916 0.1822159,0.045916 0.2198435,0 0.1779646,-0.2171674 0.1720537,-0.2009146 0.1720537,-0.473094 0,-0.2045704 0.01192,-0.2811032 0.056835,-0.3649044 0.044105,-0.08229 0.056835,-0.1603341 0.056835,-0.3484322 0,-0.1966451 0.011818,-0.2637635 0.062619,-0.3556396 0.059461,-0.1075384 0.06242,-0.1438525 0.058685,-0.7201381 -0.00223,-0.3442236 0.00809,-0.6332565 0.023854,-0.6678112 0.097888,-0.2146161 0.1476105,-0.2456383 0.3498848,-0.2182984 l 0.1131127,0.015289 0.031393,0.170505 c 0.017266,0.093778 0.047102,0.1992371 0.066301,0.2343542 0.046998,0.085961 0.030979,1.4164933 -0.019203,1.5950789 -0.031102,0.110685 -0.094709,0.9337046 -0.089218,1.1544043 0.024153,0.9707063 0.029531,1.0378648 0.085923,1.0730823 0.030527,0.019065 0.055504,0.056252 0.055504,0.082639 0,0.053479 0.1662663,0.2408735 0.2637678,0.2972868 0.1818084,0.1051925 0.2593316,0.1082974 0.2900171,0.011616 0.00881,-0.027754 0.041265,-0.073312 0.072126,-0.1012402 0.03086,-0.027928 0.05611,-0.073922 0.05611,-0.1022092 0,-0.028287 0.025576,-0.065119 0.056835,-0.081848 0.032857,-0.017584 0.056835,-0.059501 0.056835,-0.099354 0,-0.037915 0.024086,-0.091814 0.053525,-0.1197743 0.029439,-0.027961 0.06219,-0.09133 0.07278,-0.1408207 0.010591,-0.049491 0.03645,-0.096581 0.057466,-0.1046454 0.021016,-0.00806 0.047299,-0.057087 0.058409,-0.1089397 0.011109,-0.051852 0.044285,-0.1171539 0.073724,-0.1451148 0.02944,-0.027961 0.05352,-0.083489 0.05352,-0.1233964 0,-0.039907 0.02558,-0.1050732 0.05683,-0.1448128 0.03126,-0.03974 0.05683,-0.096105 0.05683,-0.1252566 0,-0.029152 0.01599,-0.053346 0.03552,-0.053767 0.01954,-4.205e-4 0.06683,-0.051514 0.105094,-0.1135424 0.03826,-0.062028 0.09261,-0.1200915 0.120774,-0.1290293 0.02816,-0.00894 0.0512,-0.028006 0.0512,-0.042372 0,-0.014367 0.0432,-0.04417 0.09599,-0.066229 0.0528,-0.022059 0.104702,-0.054201 0.115347,-0.071425 0.01065,-0.017224 0.08574,-0.031217 0.16687,-0.031095 0.125125,1.99e-4 0.151925,0.00989 0.176576,0.063939 0.01599,0.035045 0.02069,0.1020813 0.01047,0.1489702 -0.01023,0.046889 -0.02011,0.1268131 -0.02196,0.1776094 -0.0019,0.050796 -0.02894,0.1179326 -0.0602,0.1491919 -0.03126,0.031259 -0.05683,0.093217 -0.05683,0.137683 0,0.044758 -0.02537,0.1038083 -0.05683,0.1322832 -0.03126,0.028289 -0.05684,0.079012 -0.05684,0.112716 0,0.033704 -0.02557,0.088733 -0.05683,0.1222862 -0.03126,0.033553 -0.05683,0.078997 -0.05683,0.1009873 0,0.02199 -0.02478,0.071489 -0.05507,0.1099964 -0.03029,0.038508 -0.06341,0.1032468 -0.07361,0.1438636 -0.01019,0.040617 -0.03633,0.080679 -0.05809,0.089027 -0.02175,0.00835 -0.04772,0.066231 -0.05769,0.1286286 -0.01,0.062398 -0.04218,0.1352026 -0.07155,0.161788 -0.03042,0.027531 -0.05341,0.086312 -0.05341,0.1365583 0,0.057445 -0.01983,0.1006033 -0.05684,0.1237153 -0.03801,0.023736 -0.05683,0.06627 -0.05683,0.1283988 0,0.057739 -0.02151,0.111325 -0.05683,0.1415686 -0.04036,0.034558 -0.05683,0.08383 -0.05683,0.1699849 0,0.090545 -0.01442,0.1303249 -0.05684,0.1568152 -0.03529,0.022037 -0.05683,0.06627 -0.05683,0.1166734 0,0.044648 -0.024783,0.1126856 -0.055074,0.1511936 -0.03029,0.038508 -0.06421,0.107369 -0.075377,0.1530243 -0.011167,0.045655 -0.04393,0.1135071 -0.072805,0.1507815 -0.028876,0.037274 -0.052502,0.085764 -0.052502,0.1077538 0,0.02199 -0.025576,0.067434 -0.056835,0.1009872 -0.031259,0.033553 -0.056835,0.08417 -0.056835,0.1124817 0,0.02831 -0.017814,0.05148 -0.039586,0.05148 -0.043269,0 -0.074084,0.05965 -0.074084,0.143412 0,0.02943 -0.025576,0.0672 -0.056835,0.08393 -0.031259,0.01673 -0.056835,0.04631 -0.056835,0.06573 0,0.01942 -0.025576,0.05721 -0.056835,0.08397 -0.031259,0.02676 -0.056835,0.0697 -0.056835,0.09541 0,0.02571 -0.028773,0.07627 -0.063939,0.112355 -0.1269173,0.130224 -0.1565218,0.169301 -0.175933,0.232222 -0.010854,0.03518 -0.044444,0.07719 -0.074644,0.09336 -0.030201,0.01616 -0.054911,0.05302 -0.054911,0.08191 0,0.02889 -0.025576,0.05921 -0.056835,0.06738 -0.031259,0.0082 -0.056835,0.03524 -0.056835,0.06015 0,0.02491 -0.0225,0.04529 -0.049999,0.04529 -0.0275,0 -0.065972,0.02558 -0.085494,0.05684 -0.021942,0.03514 -0.06627,0.05683 -0.1161014,0.05683 -0.044334,0 -0.1023644,0.02404 -0.1289566,0.05343 -0.032545,0.03596 -0.1003991,0.05774 -0.2075853,0.06663 -0.1034664,0.0086 -0.1712828,0.02968 -0.1936323,0.06025 -0.027096,0.03706 -0.083134,0.04704 -0.2640307,0.04704 -0.1262987,0 -0.2375376,-0.01279 -0.2471973,-0.02842 -0.00966,-0.01563 -0.067205,-0.02842 -0.1278787,-0.02842 -0.060674,0 -0.1182191,0.01279 -0.1278788,0.02842 -0.00966,0.01563 -0.1163711,0.02842 -0.2371364,0.02842 -0.1640226,0 -0.2311573,-0.01158 -0.2653603,-0.04579 z"
     id="path3338"
     inkscape:connector-curvature="0" />
</svg>
