<?xml version="1.0" encoding="UTF-8" standalone="no"?>
<!-- Created with Inkscape (http://www.inkscape.org/) -->

<svg
   xmlns:dc="http://purl.org/dc/elements/1.1/"
   xmlns:cc="http://creativecommons.org/ns#"
   xmlns:rdf="http://www.w3.org/1999/02/22-rdf-syntax-ns#"
   xmlns:svg="http://www.w3.org/2000/svg"
   xmlns="http://www.w3.org/2000/svg"
   xmlns:sodipodi="http://sodipodi.sourceforge.net/DTD/sodipodi-0.dtd"
   xmlns:inkscape="http://www.inkscape.org/namespaces/inkscape"
   width="300"
   height="300"
   id="svg4682"
   version="1.1"
   inkscape:version="0.48.4 r9939"
   sodipodi:docname="ic_perfect_circle_big_normal_o.svg"
   inkscape:export-filename="/home/corbax/Dev/android/Icons/Test 1/ic_play_normal.png"
   inkscape:export-xdpi="90"
   inkscape:export-ydpi="90">
  <defs
     id="defs4684" />
  <sodipodi:namedview
     id="base"
     pagecolor="#ffffff"
     bordercolor="#666666"
     borderopacity="1.0"
     inkscape:pageopacity="0.0"
     inkscape:pageshadow="2"
     inkscape:zoom="1.979899"
     inkscape:cx="59.488997"
     inkscape:cy="136.14672"
     inkscape:document-units="px"
     inkscape:current-layer="layer1"
     showgrid="false"
     inkscape:window-width="1301"
     inkscape:window-height="744"
     inkscape:window-x="65"
     inkscape:window-y="24"
     inkscape:window-maximized="1" />
  <metadata
     id="metadata4687">
    <rdf:RDF>
      <cc:Work
         rdf:about="">
        <dc:format>image/svg+xml</dc:format>
        <dc:type
           rdf:resource="http://purl.org/dc/dcmitype/StillImage" />
        <dc:title></dc:title>
      </cc:Work>
    </rdf:RDF>
  </metadata>
  <g
     inkscape:label="Layer 1"
     inkscape:groupmode="layer"
     id="layer1"
     transform="translate(0,-752.36218)">
    <g
       id="g3874"
       transform="matrix(1.25,0,0,1.25,-226.25,338.15945)" />
    <path
       d="m 295,507.36218 c 0,27.61424 -22.38576,50 -50,50 -27.61424,0 -50,-22.38576 -50,-50 0,-27.61423 22.38576,-50 50,-50 27.61424,0 50,22.38577 50,50 z"
       sodipodi:ry="50"
       sodipodi:rx="50"
       sodipodi:cy="507.36218"
       sodipodi:cx="245"
       id="path5770"
       style="opacity:0.9;fill:#ff8800;fill-opacity:1;stroke:none"
       sodipodi:type="arc"
       transform="matrix(2.25,0,0,2.25,-401.25,-239.20273)" />
    <path
       style="fill:#ffffff;fill-opacity:1;stroke:none"
       d="m 209.40802,855.60256 c -3.91737,-3.91737 -10.22476,-3.91737 -14.14213,0 l -68.03693,68.03693 -22.51693,-22.51693 c -3.91738,-3.91737 -10.224774,-3.91737 -14.142144,0 l -2.276,2.276 c -3.917372,3.91737 -3.917372,10.22477 0,14.14214 l 31.576744,31.57674 c 3.52751,3.52751 8.99145,3.88606 12.9047,1.06066 0.97926,-0.47594 1.90264,-1.10715 2.71794,-1.92245 l 76.21285,-76.21285 c 3.91737,-3.91737 3.91737,-10.22477 0,-14.14214 l -2.2981,-2.2981 z"
       id="rect3860"
       inkscape:connector-curvature="0" />
  </g>
</svg>
