<?xml version="1.0" encoding="UTF-8" standalone="no"?>
<!-- Created with Inkscape (http://www.inkscape.org/) -->

<svg
   xmlns:dc="http://purl.org/dc/elements/1.1/"
   xmlns:cc="http://creativecommons.org/ns#"
   xmlns:rdf="http://www.w3.org/1999/02/22-rdf-syntax-ns#"
   xmlns:svg="http://www.w3.org/2000/svg"
   xmlns="http://www.w3.org/2000/svg"
   xmlns:sodipodi="http://sodipodi.sourceforge.net/DTD/sodipodi-0.dtd"
   xmlns:inkscape="http://www.inkscape.org/namespaces/inkscape"
   width="300"
   height="300"
   id="svg4682"
   version="1.1"
   inkscape:version="0.48.4 r9939"
   sodipodi:docname="ic_refresh_circle_big_pressed_o.svg"
   inkscape:export-filename="/home/corbax/Dev/android/Icons/Test 1/ic_play_normal.png"
   inkscape:export-xdpi="90"
   inkscape:export-ydpi="90">
  <defs
     id="defs4684">
    <filter
       color-interpolation-filters="sRGB"
       inkscape:collect="always"
       id="filter3934-5-0-9"
       x="-0.23999999"
       width="1.48"
       y="-0.23999999"
       height="1.48">
      <feGaussianBlur
         inkscape:collect="always"
         stdDeviation="10"
         id="feGaussianBlur3936-8-3-7" />
    </filter>
  </defs>
  <sodipodi:namedview
     id="base"
     pagecolor="#ffffff"
     bordercolor="#666666"
     borderopacity="1.0"
     inkscape:pageopacity="0.0"
     inkscape:pageshadow="2"
     inkscape:zoom="1.99"
     inkscape:cx="150"
     inkscape:cy="150"
     inkscape:document-units="px"
     inkscape:current-layer="layer1"
     showgrid="false"
     inkscape:window-width="1301"
     inkscape:window-height="744"
     inkscape:window-x="65"
     inkscape:window-y="24"
     inkscape:window-maximized="1" />
  <metadata
     id="metadata4687">
    <rdf:RDF>
      <cc:Work
         rdf:about="">
        <dc:format>image/svg+xml</dc:format>
        <dc:type
           rdf:resource="http://purl.org/dc/dcmitype/StillImage" />
        <dc:title></dc:title>
      </cc:Work>
    </rdf:RDF>
  </metadata>
  <g
     inkscape:label="Layer 1"
     inkscape:groupmode="layer"
     id="layer1"
     transform="translate(0,-752.36218)">
    <g
       id="g3874"
       transform="matrix(1.25,0,0,1.25,-226.25,338.15945)" />
    <g
       style="fill:#ff8800;fill-opacity:1;filter:url(#filter3934-5-0-9)"
       id="g5802"
       transform="matrix(2.25,0,0,2.25,-401.25,-239.20275)">
      <path
         sodipodi:type="arc"
         style="opacity:0.76954735;fill:#ff8800;fill-opacity:1;stroke:none"
         id="path5804"
         sodipodi:cx="245"
         sodipodi:cy="507.36218"
         sodipodi:rx="50"
         sodipodi:ry="50"
         d="m 295,507.36218 c 0,27.61424 -22.38576,50 -50,50 -27.61424,0 -50,-22.38576 -50,-50 0,-27.61423 22.38576,-50 50,-50 27.61424,0 50,22.38577 50,50 z" />
      <path
         sodipodi:type="star"
         style="fill:#ff8800;fill-opacity:1;stroke:none"
         id="path5806"
         sodipodi:sides="3"
         sodipodi:cx="245"
         sodipodi:cy="507.36218"
         sodipodi:r1="25"
         sodipodi:r2="12.5"
         sodipodi:arg1="0"
         sodipodi:arg2="1.0471976"
         inkscape:flatsided="true"
         inkscape:rounded="0"
         inkscape:randomized="0"
         d="m 270,507.36218 -37.5,21.65064 0,-43.30127 z"
         inkscape:transform-center-x="-6.25" />
    </g>
    <path
       transform="matrix(2.25,0,0,2.25,-401.25,-239.20275)"
       sodipodi:type="arc"
       style="opacity:0.9;fill:#ff8800;fill-opacity:1;stroke:none"
       id="path5792"
       sodipodi:cx="245"
       sodipodi:cy="507.36218"
       sodipodi:rx="50"
       sodipodi:ry="50"
       d="m 295,507.36218 a 50,50 0 1 1 -100,0 50,50 0 1 1 100,0 z" />
    <path
       inkscape:connector-curvature="0"
       id="path5"
       d="m 153.89419,960.38248 c -0.0551,-6.40818 -0.0891,-12.81211 -0.14419,-19.21604 -11.02664,1.07722 -22.42224,-2.55733 -30.85338,-11.00119 -14.98774,-14.99199 -14.98774,-39.28451 0,-54.26801 14.97502,-14.98775 39.27179,-14.98775 54.25953,0 12.7909,12.78665 14.6103,32.33772 5.56845,47.11342 -4.94926,-5.00864 -10.81034,-10.89941 -10.81034,-10.89941 0.28662,0.29803 -7.50659,35.42258 -7.50659,40.36598 -0.28411,2.34891 0.33704,3.21836 2.59125,2.59126 5.24235,-0.69862 40.01735,-8.76174 40.10303,-7.44722 0,0 -6.27246,-6.34032 -10.6407,-10.74249 16.44665,-22.50283 14.5806,-54.21713 -5.74233,-74.54431 -22.47738,-22.47737 -58.92041,-22.47737 -81.39354,0 -22.46889,22.47314 -22.46889,58.91617 0,81.3893 12.2226,12.23109 28.58443,17.74441 44.56881,16.65871 z"
       style="fill:#ffffff"
       sodipodi:nodetypes="ccccccccccccscc" />
  </g>
</svg>
