<?xml version="1.0" encoding="UTF-8" standalone="no"?>
<!-- Created with Inkscape (http://www.inkscape.org/) -->

<svg
   xmlns:dc="http://purl.org/dc/elements/1.1/"
   xmlns:cc="http://creativecommons.org/ns#"
   xmlns:rdf="http://www.w3.org/1999/02/22-rdf-syntax-ns#"
   xmlns:svg="http://www.w3.org/2000/svg"
   xmlns="http://www.w3.org/2000/svg"
   xmlns:sodipodi="http://sodipodi.sourceforge.net/DTD/sodipodi-0.dtd"
   xmlns:inkscape="http://www.inkscape.org/namespaces/inkscape"
   id="svg2"
   version="1.1"
   inkscape:version="0.91 r13725"
   width="95"
   height="125"
   viewBox="0 0 95 125"
   sodipodi:docname="hand_white.svg">
  <metadata
     id="metadata8">
    <rdf:RDF>
      <cc:Work
         rdf:about="">
        <dc:format>image/svg+xml</dc:format>
        <dc:type
           rdf:resource="http://purl.org/dc/dcmitype/StillImage" />
        <dc:title></dc:title>
      </cc:Work>
    </rdf:RDF>
  </metadata>
  <defs
     id="defs6" />
  <sodipodi:namedview
     pagecolor="#ffffff"
     bordercolor="#666666"
     borderopacity="1"
     objecttolerance="10"
     gridtolerance="10"
     guidetolerance="10"
     inkscape:pageopacity="0"
     inkscape:pageshadow="2"
     inkscape:window-width="681"
     inkscape:window-height="691"
     id="namedview4"
     showgrid="false"
     inkscape:zoom="4.248"
     inkscape:cx="47.5"
     inkscape:cy="73.498776"
     inkscape:window-x="0"
     inkscape:window-y="24"
     inkscape:window-maximized="0"
     inkscape:current-layer="svg2" />
  <path
     style="fill:#000000"
     d="M 46.398404,124.36079 C 29.747584,120.85216 22.442383,113.03276 4.9198033,79.962608 0.40308848,71.438265 -0.37537299,69.16096 0.13765626,65.972964 1.9479927,54.723423 13.900175,53.14421 21.478916,63.153196 l 3.730001,4.926086 0,-25.847752 c 0,-28.548847 0.417187,-30.739318 6.324383,-33.206721 1.785237,-0.745684 4.818853,-1.098386 6.741368,-0.783783 3.114934,0.509731 3.622813,0.231822 4.665103,-2.5527055 2.448657,-6.5417533 13.189269,-7.7612162 17.428755,-1.9788178 1.819987,2.4823441 2.618682,2.8143478 5.067032,2.1062678 6.696354,-1.9366265 12.512253,2.0508485 13.467634,9.2336355 l 0.546859,4.111429 5.163973,0 c 3.960049,0 5.726585,0.567039 7.577211,2.432214 2.400801,2.419668 2.414828,2.614527 2.71967,37.776956 0.343004,39.565005 -0.0053,42.304325 -6.572173,51.617715 -4.07622,5.78146 -10.494791,10.63422 -16.392895,12.39384 -5.411191,1.61436 -19.898115,2.16964 -25.547433,0.97923 z m 26.365823,-6.98505 c 5.885804,-2.37482 13.064897,-10.62618 15.290005,-17.57372 2.58748,-8.079008 2.688277,-71.562461 0.117728,-74.154607 -0.915683,-0.923383 -2.525977,-1.678879 -3.578426,-1.678879 -3.98266,0 -4.80139,2.925676 -5.351426,19.122853 -0.4995,14.709101 -0.650676,15.599415 -2.648686,15.599415 -2.036172,0 -2.13964,-0.890314 -2.648686,-22.7912 -0.488354,-21.010859 -0.690915,-22.909889 -2.593105,-24.310598 -2.149695,-1.582963 -5.82499,-1.05219 -7.190812,1.038469 -0.428101,0.655312 -0.785674,10.387427 -0.794605,21.626924 -0.01314,16.57368 -0.307767,20.679447 -1.559017,21.726621 -3.323952,2.781814 -3.754576,0.08327 -3.754576,-23.528517 0,-22.016749 -0.128768,-23.5711 -2.118948,-25.5780069 -2.507077,-2.5281444 -4.1601,-2.6761072 -6.948954,-0.622003 -1.911674,1.4080279 -2.079272,3.1957959 -2.3787,25.3739649 -0.177166,13.122568 -0.752916,24.295569 -1.279442,24.828892 -0.572837,0.580235 -1.613611,0.420425 -2.591432,-0.39791 -1.363819,-1.14138 -1.634112,-4.609034 -1.634112,-20.964168 0,-18.281124 -0.137562,-19.670817 -2.0493,-20.702544 -2.524521,-1.362437 -4.355617,-1.379928 -6.426495,-0.06139 -1.333051,0.848764 -1.674597,6.053215 -2.118948,32.288397 -0.622983,36.781919 -0.593649,36.70787 -9.687513,24.45378 -6.537192,-8.808941 -10.350105,-10.871317 -13.7536018,-7.439218 -2.8862835,2.910538 -2.2727387,5.029381 5.6666178,19.569356 10.95566,20.063969 17.37608,28.539709 24.508641,32.354419 8.662052,4.63272 26.31124,5.53678 35.523793,1.81967 z"
     id="path3373"
     inkscape:connector-curvature="0" />
  <text
     xml:space="preserve"
     style="font-style:normal;font-variant:normal;font-weight:normal;font-stretch:normal;font-size:40px;line-height:125%;font-family:'STIX Math';-inkscape-font-specification:'STIX Math';letter-spacing:0px;word-spacing:0px;fill:#000000;fill-opacity:1;stroke:none;stroke-width:1px;stroke-linecap:butt;stroke-linejoin:miter;stroke-opacity:1"
     x="7.5348387"
     y="72.625237"
     id="text3415"
     sodipodi:linespacing="125%"><tspan
       sodipodi:role="line"
       id="tspan3417"
       x="7.5348387"
       y="72.625237"
       style="font-style:normal;font-variant:normal;font-weight:normal;font-stretch:normal;font-size:12.5px;font-family:'STIX Math';-inkscape-font-specification:'STIX Math'">1</tspan></text>
  <text
     xml:space="preserve"
     style="font-style:normal;font-variant:normal;font-weight:normal;font-stretch:normal;font-size:40px;line-height:125%;font-family:'STIX Math';-inkscape-font-specification:'STIX Math';letter-spacing:0px;word-spacing:0px;fill:#000000;fill-opacity:1;stroke:none;stroke-width:1px;stroke-linecap:butt;stroke-linejoin:miter;stroke-opacity:1"
     x="32.380474"
     y="24.377541"
     id="text3415-1"
     sodipodi:linespacing="125%"><tspan
       sodipodi:role="line"
       id="tspan3417-3"
       x="32.380474"
       y="24.377541"
       style="font-style:normal;font-variant:normal;font-weight:normal;font-stretch:normal;font-size:12.5px;font-family:'STIX Math';-inkscape-font-specification:'STIX Math'">2</tspan></text>
  <text
     xml:space="preserve"
     style="font-style:normal;font-variant:normal;font-weight:normal;font-stretch:normal;font-size:40px;line-height:125%;font-family:'STIX Math';-inkscape-font-specification:'STIX Math';letter-spacing:0px;word-spacing:0px;fill:#000000;fill-opacity:1;stroke:none;stroke-width:1px;stroke-linecap:butt;stroke-linejoin:miter;stroke-opacity:1"
     x="49.337158"
     y="16.368126"
     id="text3415-1-9"
     sodipodi:linespacing="125%"><tspan
       sodipodi:role="line"
       id="tspan3417-3-3"
       x="49.337158"
       y="16.368126"
       style="font-style:normal;font-variant:normal;font-weight:normal;font-stretch:normal;font-size:12.5px;font-family:'STIX Math';-inkscape-font-specification:'STIX Math'">3</tspan></text>
  <text
     xml:space="preserve"
     style="font-style:normal;font-variant:normal;font-weight:normal;font-stretch:normal;font-size:40px;line-height:125%;font-family:'STIX Math';-inkscape-font-specification:'STIX Math';letter-spacing:0px;word-spacing:0px;fill:#000000;fill-opacity:1;stroke:none;stroke-width:1px;stroke-linecap:butt;stroke-linejoin:miter;stroke-opacity:1"
     x="65.337158"
     y="22.368126"
     id="text3415-1-9-2"
     sodipodi:linespacing="125%"><tspan
       sodipodi:role="line"
       id="tspan3417-3-3-0"
       x="65.337158"
       y="22.368126"
       style="font-style:normal;font-variant:normal;font-weight:normal;font-stretch:normal;font-size:12.5px;font-family:'STIX Math';-inkscape-font-specification:'STIX Math'">4</tspan></text>
  <text
     xml:space="preserve"
     style="font-style:normal;font-variant:normal;font-weight:normal;font-stretch:normal;font-size:40px;line-height:125%;font-family:'STIX Math';-inkscape-font-specification:'STIX Math';letter-spacing:0px;word-spacing:0px;fill:#000000;fill-opacity:1;stroke:none;stroke-width:1px;stroke-linecap:butt;stroke-linejoin:miter;stroke-opacity:1"
     x="81.118706"
     y="34.592232"
     id="text3415-1-9-9"
     sodipodi:linespacing="125%"><tspan
       sodipodi:role="line"
       id="tspan3417-3-3-2"
       x="81.118706"
       y="34.592232"
       style="font-style:normal;font-variant:normal;font-weight:normal;font-stretch:normal;font-size:12.5px;font-family:'STIX Math';-inkscape-font-specification:'STIX Math'">5</tspan></text>
</svg>
