<?xml version="1.0" encoding="UTF-8" standalone="no"?>
<!-- Created with Inkscape (http://www.inkscape.org/) -->

<svg
   xmlns:dc="http://purl.org/dc/elements/1.1/"
   xmlns:cc="http://creativecommons.org/ns#"
   xmlns:rdf="http://www.w3.org/1999/02/22-rdf-syntax-ns#"
   xmlns:svg="http://www.w3.org/2000/svg"
   xmlns="http://www.w3.org/2000/svg"
   xmlns:sodipodi="http://sodipodi.sourceforge.net/DTD/sodipodi-0.dtd"
   xmlns:inkscape="http://www.inkscape.org/namespaces/inkscape"
   id="svg3338"
   version="1.1"
   inkscape:version="0.91 r13725"
   width="100"
   height="125"
   viewBox="0 0 100 125"
   sodipodi:docname="hand_black.svg">
  <metadata
     id="metadata3344">
    <rdf:RDF>
      <cc:Work
         rdf:about="">
        <dc:format>image/svg+xml</dc:format>
        <dc:type
           rdf:resource="http://purl.org/dc/dcmitype/StillImage" />
        <dc:title></dc:title>
      </cc:Work>
    </rdf:RDF>
  </metadata>
  <defs
     id="defs3342" />
  <sodipodi:namedview
     pagecolor="#ffffff"
     bordercolor="#666666"
     borderopacity="1"
     objecttolerance="10"
     gridtolerance="10"
     guidetolerance="10"
     inkscape:pageopacity="0"
     inkscape:pageshadow="2"
     inkscape:window-width="1366"
     inkscape:window-height="692"
     id="namedview3340"
     showgrid="false"
     inkscape:zoom="4.15625"
     inkscape:cx="34.406015"
     inkscape:cy="64"
     inkscape:window-x="0"
     inkscape:window-y="24"
     inkscape:window-maximized="1"
     inkscape:current-layer="svg3338" />
  <path
     style="fill:#000000"
     d="M 47.850481,123.93774 C 41.09996,122.0159 36.371952,119.50581 31.536956,115.27689 26.340107,110.73147 1.1079619,73.290504 0.19935449,68.776266 -0.32296689,66.181277 0.08143581,65.153272 2.6148807,62.635914 c 5.5729562,-5.53759 9.4961323,-3.820209 17.7174093,7.75584 2.748593,3.870176 5.335247,7.056072 5.748127,7.07977 0.412881,0.0237 0.750692,-14.193174 0.750692,-31.593047 0,-33.062727 0.05075,-33.472083 4.428291,-35.758809 2.394667,-1.250897 7.081937,0.208938 8.247882,2.568775 0.454088,0.91905 1.05322,10.840463 1.331407,22.047582 0.470043,18.936361 0.638809,20.401927 2.3877,20.735178 1.035054,0.197227 2.266789,-0.244887 2.737213,-0.982476 0.470414,-0.737589 0.862195,-12.572502 0.870622,-26.299806 0.01411,-22.905242 0.165933,-25.094161 1.845762,-26.604735 2.429529,-2.184736 7.461006,-2.093452 9.525048,0.172809 1.448595,1.590526 1.656517,4.94569 1.656517,26.731598 0,20.836567 0.243564,25.113651 1.488632,26.140406 0.818754,0.67519 2.146298,0.976853 2.950099,0.670364 1.210035,-0.461389 1.513554,-4.483699 1.764356,-23.381424 0.276104,-20.804298 0.471644,-23.009252 2.209656,-24.915539 2.41936,-2.653617 6.98724,-2.702239 9.603861,-0.102227 1.893105,1.881092 2.002676,3.326212 2.017169,26.604735 0.008,13.538578 0.400209,25.219078 0.870633,25.956667 0.470413,0.737589 1.702158,1.179809 2.737202,0.982711 1.739033,-0.331152 1.91991,-1.754429 2.382376,-18.746038 0.275259,-10.113223 0.882028,-18.97473 1.348388,-19.692238 2.584341,-3.97612 9.458707,-3.106784 11.553237,1.46103 1.82493,3.979858 1.50216,70.040835 -0.377257,77.21055 -2.64681,10.09729 -8.496721,17.26189 -17.52898,21.46837 -4.761889,2.2177 -7.059006,2.59826 -17.015682,2.81895 -7.168897,0.15889 -13.209545,-0.22854 -16.01476,-1.02717 z"
     id="path3394"
     inkscape:connector-curvature="0" />
</svg>
