<?xml version="1.0" encoding="UTF-8" standalone="no"?>
<!-- Created with Inkscape (http://www.inkscape.org/) -->

<svg
   xmlns:dc="http://purl.org/dc/elements/1.1/"
   xmlns:cc="http://creativecommons.org/ns#"
   xmlns:rdf="http://www.w3.org/1999/02/22-rdf-syntax-ns#"
   xmlns:svg="http://www.w3.org/2000/svg"
   xmlns="http://www.w3.org/2000/svg"
   xmlns:sodipodi="http://sodipodi.sourceforge.net/DTD/sodipodi-0.dtd"
   xmlns:inkscape="http://www.inkscape.org/namespaces/inkscape"
   id="svg3338"
   version="1.1"
   inkscape:version="0.91 r13725"
   width="100"
   height="125"
   viewBox="0 0 100 125"
   sodipodi:docname="hand_white_left_a_concentrical_circles.svg">
  <metadata
     id="metadata3344">
    <rdf:RDF>
      <cc:Work
         rdf:about="">
        <dc:format>image/svg+xml</dc:format>
        <dc:type
           rdf:resource="http://purl.org/dc/dcmitype/StillImage" />
        <dc:title></dc:title>
      </cc:Work>
    </rdf:RDF>
  </metadata>
  <defs
     id="defs3342" />
  <sodipodi:namedview
     pagecolor="#ffffff"
     bordercolor="#666666"
     borderopacity="1"
     objecttolerance="10"
     gridtolerance="10"
     guidetolerance="10"
     inkscape:pageopacity="0"
     inkscape:pageshadow="2"
     inkscape:window-width="1366"
     inkscape:window-height="692"
     id="namedview3340"
     showgrid="false"
     inkscape:zoom="4.256"
     inkscape:cx="50"
     inkscape:cy="62.5"
     inkscape:window-x="0"
     inkscape:window-y="24"
     inkscape:window-maximized="1"
     inkscape:current-layer="layer2" />
  <g
     inkscape:groupmode="layer"
     id="layer1"
     inkscape:label="hand"
     style="display:inline">
    <path
       style="color:#000000;font-style:normal;font-variant:normal;font-weight:normal;font-stretch:normal;font-size:medium;line-height:normal;font-family:sans-serif;text-indent:0;text-align:start;text-decoration:none;text-decoration-line:none;text-decoration-style:solid;text-decoration-color:#000000;letter-spacing:normal;word-spacing:normal;text-transform:none;direction:ltr;block-progression:tb;writing-mode:lr-tb;baseline-shift:baseline;text-anchor:start;white-space:normal;clip-rule:nonzero;display:inline;overflow:visible;visibility:visible;opacity:1;isolation:auto;mix-blend-mode:normal;color-interpolation:sRGB;color-interpolation-filters:linearRGB;solid-color:#000000;solid-opacity:1;fill-opacity:1;fill-rule:nonzero;stroke:none;stroke-width:1;stroke-linecap:butt;stroke-linejoin:miter;stroke-miterlimit:4;stroke-dasharray:none;stroke-dashoffset:0;stroke-opacity:1;color-rendering:auto;image-rendering:auto;shape-rendering:auto;text-rendering:auto;enable-background:accumulate"
       d="m 46.449142,0.00157936 c 1.902606,-0.03458564 3.858737,0.49752192 5.190394,1.69734724 0.457253,0.4119861 0.854923,0.9381064 1.125488,1.7767893 0.270563,0.8386829 0.44562,1.990575 0.570479,3.7938423 0.249717,3.6065338 0.288889,9.8289138 0.295875,21.1916518 0.0042,6.804501 0.103147,13.139644 0.259132,17.860897 0.07799,2.360627 0.169557,4.318648 0.270737,5.723704 0.05058,0.702527 0.103707,1.267759 0.15664,1.668282 0.02647,0.200262 0.0538,0.359683 0.07736,0.466964 0.02354,0.107283 0.06672,0.17908 0.01934,0.104632 0.303331,0.47653 1.380438,0.910334 2.200696,0.753731 0.368799,-0.07042 0.494206,-0.105897 0.696177,-0.466964 0.201968,-0.361068 0.40741,-1.115035 0.56274,-2.466579 0.310658,-2.70309 0.471242,-7.77154 0.703912,-17.163359 0.137849,-5.56425 0.354258,-10.807512 0.593686,-14.780096 0.119713,-1.986292 0.245084,-3.654571 0.369361,-4.89053 0.06214,-0.61798 0.12341,-1.127418 0.185648,-1.521025 0.06224,-0.393605 0.09549,-0.633996 0.220456,-0.887426 0.675956,-1.370793 2.234136,-2.34429 3.923735,-2.8715394 1.6896,-0.5272496 3.542741,-0.6159462 4.91579,0.1026934 1.088597,0.569771 2.000989,1.069568 2.68802,2.042242 0.687031,0.972674 1.108725,2.345933 1.390422,4.625077 0.563393,4.55829 0.57048,12.847933 0.57048,29.248238 0,8.627622 0.08394,16.466289 0.218522,22.141081 0.06729,2.837396 0.147646,5.135239 0.235927,6.713822 0.03858,0.689776 0.07959,1.177152 0.119897,1.571402 0.324464,-0.343449 0.759761,-0.850462 1.268591,-1.478396 1.021938,-1.26115 2.33821,-3.005442 3.693611,-4.917658 4.084858,-5.762976 7.093811,-9.122991 9.959211,-10.379781 1.432696,-0.628396 2.848928,-0.696746 4.223475,-0.226701 1.374547,0.470046 2.704102,1.445341 4.113251,2.848288 1.268765,1.263175 2.046435,2.183707 2.440491,3.187371 0.394054,1.003663 0.352974,2.030117 0.08702,3.354004 -0.143122,0.712466 -0.642706,1.753985 -1.429099,3.22031 -0.786392,1.466324 -1.861127,3.307938 -3.138602,5.403996 -2.554948,4.192118 -5.925442,9.400117 -9.429342,14.609587 -3.5039,5.20947 -7.140333,10.419053 -10.22608,14.613463 -3.085747,4.19441 -5.573258,7.33989 -6.963713,8.55842 -4.834536,4.2368 -9.60832,6.77499 -16.342777,8.696 -2.916954,0.83207 -8.882307,1.19672 -16.004356,1.03856 -9.86922,-0.21918 -12.294329,-0.62578 -17.044756,-2.84247 -9.06388,-4.22947 -14.9753772,-11.48698 -17.6268372,-21.6218 -0.255806,-0.977777 -0.454127,-2.770199 -0.63816398,-5.260616 -0.184033,-2.490416 -0.341938,-5.654897 -0.473792,-9.26178 -0.263689,-7.213767 -0.422712,-16.198649 -0.466049,-25.08625 -0.04337,-8.8876 0.02901,-17.676135 0.224321,-24.495277 0.09763,-3.409572 0.225262,-6.32691 0.386771,-8.523551 0.08079,-1.09832 0.169964,-2.016199 0.268797,-2.732031 0.09883,-0.715833 0.18631598,-1.205229 0.35389398,-1.571404 2.234977,-4.88364 9.5095582,-5.820572 12.3049452,-1.511336 0.17123,0.263959 0.184776,0.462848 0.249464,0.809922 0.06468,0.347074 0.127909,0.797454 0.191448,1.344702 0.127079,1.094497 0.255779,2.57858 0.377097,4.353812 0.242636,3.550463 0.461121,8.261844 0.597552,13.284261 0.228911,8.426939 0.389696,12.999819 0.700047,15.446634 0.155174,1.223408 0.359955,1.904935 0.556942,2.232128 0.196986,0.327194 0.330115,0.373501 0.698111,0.443713 0.820245,0.156501 1.897367,-0.277192 2.200696,-0.753731 -0.04633,0.07279 -0.0022,0.0034 0.02127,-0.102693 0.02349,-0.106048 0.04897,-0.26517 0.07542,-0.463089 0.0529,-0.395839 0.106044,-0.953145 0.156641,-1.646969 0.101194,-1.387647 0.194654,-3.320348 0.27267,-5.650074 0.156034,-4.659453 0.255176,-10.911758 0.259133,-17.622572 0.0072,-11.54758 0.03536,-17.674287 0.301677,-21.193589 0.133156,-1.759651 0.322517,-2.8746098 0.622692,-3.7047121 0.300176,-0.8301024 0.728924,-1.3593095 1.218312,-1.8465433 2.797303,-2.7849846 7.621698,-2.7398852 10.224146,0.1201319 0.459109,0.5045455 0.848498,1.0792864 1.133222,1.9337358 0.284726,0.8544494 0.479915,1.9848627 0.630428,3.6853357 0.301027,3.400948 0.41637,9.105645 0.553075,19.426488 0.124134,9.37162 0.26252,15.054608 0.516332,18.424743 0.126907,1.685068 0.286259,2.794593 0.469921,3.464448 0.18366,0.669856 0.358699,0.817265 0.440912,0.848674 0.525263,0.200674 1.766967,-0.0347 2.430821,-0.58322 0.184145,-0.152154 0.397629,-0.488818 0.582082,-1.302075 0.184454,-0.813258 0.330582,-2.067946 0.437045,-3.941101 0.212926,-3.74631 0.274604,-9.974504 0.274604,-20.308101 0,-10.808007 0.04976,-17.041713 0.282338,-20.8021915 0.116289,-1.8802394 0.276018,-3.1440318 0.510531,-4.068983 0.234513,-0.9249513 0.563638,-1.5278847 0.976583,-1.9821761 1.15444,-1.27002327 3.034456,-1.86814832 4.937061,-1.90273404 z m 0.01741,0.99205682 c -1.70057,0.0309131 -3.334271,0.60091652 -4.22348,1.57915302 -0.304196,0.3346547 -0.538977,0.7395102 -0.746457,1.5578392 -0.20748,0.818329 -0.368993,2.0341772 -0.483457,3.88491 -0.228927,3.7014666 -0.280404,9.9372746 -0.280404,20.7421256 0,10.337462 -0.06069,16.566632 -0.276538,20.364292 -0.107922,1.89883 -0.252772,3.189083 -0.460251,4.10386 -0.207479,0.914776 -0.484396,1.491335 -0.916634,1.848481 -0.957475,0.791131 -2.34675,1.151477 -3.413206,0.744042 -0.516827,-0.197453 -0.82686,-0.718401 -1.044266,-1.511336 C 34.404451,53.514067 34.248087,52.367796 34.119063,50.654606 33.861015,47.228225 33.724988,41.541918 33.600798,32.165922 33.464127,21.84772 33.345922,16.140321 33.05159,12.815001 32.904425,11.152341 32.71168,10.088915 32.467575,9.3563652 32.223469,8.623815 31.942582,8.2182393 31.541271,7.7772123 29.352807,5.3721517 25.132391,5.3182227 22.748157,7.6919573 22.300345,8.1377986 22.011629,8.4889942 21.76384,9.1742297 c -0.247791,0.6852356 -0.436552,1.7224673 -0.566612,3.4411973 -0.26012,3.437461 -0.292569,9.573923 -0.299743,21.119959 -0.004,6.720226 -0.104509,12.978475 -0.261067,17.653574 -0.07828,2.33755 -0.169805,4.278257 -0.27267,5.688826 -0.05144,0.705285 -0.104923,1.276649 -0.162441,1.707035 -0.02876,0.215194 -0.05946,0.393827 -0.09282,0.54447 -0.03337,0.150642 -0.04629,0.258145 -0.150839,0.422399 -0.628201,0.986921 -1.992366,1.430069 -3.221756,1.195506 -0.492929,-0.09405 -1.026243,-0.348147 -1.361415,-0.904864 -0.335172,-0.556719 -0.528311,-1.34192 -0.690376,-2.619651 -0.324132,-2.555461 -0.478795,-7.117688 -0.707781,-15.54739 -0.136107,-5.010476 -0.354295,-9.710363 -0.595619,-13.241634 -0.120662,-1.765635 -0.247344,-3.239747 -0.371295,-4.307309 -0.06197,-0.533781 -0.124165,-0.967759 -0.18178,-1.276886 -0.05761,-0.309127 -0.162153,-0.537469 -0.10636,-0.451463 -2.322227,-3.579837 -8.6614752,-2.79403 -10.5741692,1.385391 -0.05829,0.127358 -0.180519,0.612914 -0.274603,1.294325 -0.09408,0.681411 -0.181265,1.582652 -0.261067,2.66809 -0.159606,2.170876 -0.287428,5.078175 -0.384832,8.478986 -0.194808,6.801621 -0.26762498,15.581314 -0.224324,24.460401 0.0433,8.879086 0.200995,17.859057 0.464119,25.057185 0.131561,3.599064 0.291227,6.752581 0.473787,9.223028 0.182561,2.470448 0.399751,4.281938 0.609156,5.082355 2.589856,9.89934 8.2632122,16.85797 17.0853662,20.97464 4.679254,2.18347 6.802873,2.53077 16.650255,2.74946 7.074084,0.1571 13.070438,-0.2473 15.708481,-0.9998 6.633191,-1.89213 11.223834,-4.3348 15.963746,-8.48868 1.182295,-1.03611 3.744854,-4.22327 6.818676,-8.40148 3.073813,-4.1782 6.705413,-9.378696 10.202865,-14.57858 3.497452,-5.199883 6.86105,-10.40001 9.404203,-14.572772 1.271576,-2.08638 2.339377,-3.917725 3.111528,-5.357494 0.772151,-1.439768 1.248688,-2.53804 1.330474,-2.945169 0.251208,-1.25049 0.267218,-2.021781 -0.03674,-2.795972 -0.303961,-0.774192 -0.978452,-1.612164 -2.218101,-2.846351 -1.349797,-1.343855 -2.57609,-2.215199 -3.736154,-2.611899 -1.160065,-0.396701 -2.258449,-0.350654 -3.504095,0.195699 -2.491293,1.092703 -5.49405,4.32539 -9.54924,10.046513 -1.366037,1.927219 -2.691118,3.683152 -3.732287,4.968034 -0.520585,0.642441 -0.969323,1.166627 -1.324672,1.542338 -0.177675,0.187856 -0.330554,0.33825 -0.46992,0.455339 -0.06968,0.05854 -0.135134,0.109164 -0.210788,0.155009 -0.07566,0.04584 -0.154131,0.10029 -0.330684,0.110443 -0.183323,0.01055 -0.33295,-0.08812 -0.400302,-0.156946 -0.06735,-0.06882 -0.09167,-0.119701 -0.112162,-0.162759 -0.04098,-0.08612 -0.05676,-0.149553 -0.07349,-0.220888 -0.03346,-0.14267 -0.0579,-0.31078 -0.08315,-0.528968 -0.0505,-0.436377 -0.09647,-1.058808 -0.141169,-1.858169 -0.08941,-1.59872 -0.170431,-3.901464 -0.237861,-6.744824 -0.13486,-5.686719 -0.218522,-13.53029 -0.218522,-22.164332 0,-16.399797 -0.01744,-24.714239 -0.562744,-29.126168 -0.272652,-2.205964 -0.674968,-3.409045 -1.216377,-4.175551 -0.54141,-0.766508 -1.25945,-1.169652 -2.337998,-1.734162 -0.997958,-0.522321 -2.651293,-0.506781 -4.16353,-0.03488 -1.512239,0.471902 -2.851584,1.393586 -3.330052,2.363885 0.01257,-0.0255 -0.07223,0.239991 -0.129566,0.602597 -0.05734,0.362607 -0.118842,0.860073 -0.179846,1.466772 -0.122009,1.213398 -0.246274,2.871749 -0.365493,4.84984 -0.23844,3.956181 -0.454161,9.191371 -0.591752,14.74522 -0.232728,9.394127 -0.389505,14.44754 -0.711649,17.25055 -0.16107,1.401505 -0.351722,2.247014 -0.682641,2.8386 -0.330917,0.591586 -0.876011,0.86229 -1.373016,0.95718 -1.229398,0.234717 -2.591603,-0.208577 -3.219824,-1.195507 C 53.475494,54.652615 53.461638,54.545937 53.42833,54.394192 53.39502,54.242448 53.36617,54.061316 53.33744,53.843911 53.27997,53.409098 53.226404,52.831366 53.174998,52.117499 53.072183,50.689765 52.97864,48.723393 52.900392,46.355044 52.743895,41.618346 52.645434,35.274971 52.64126,28.461207 52.63426,17.100642 52.59206,10.87401 52.347318,7.3393092 52.224945,5.5719589 52.049093,4.4799747 51.82325,3.7799179 51.597408,3.079861 51.352531,2.7725174 50.978167,2.4352158 49.904299,1.4676588 48.167118,0.96272012 46.466548,0.99363321 Z"
       id="path3394"
       inkscape:connector-curvature="0" />
  </g>
  <g
     inkscape:groupmode="layer"
     id="layer2"
     inkscape:label="numbers"
     style="display:inline">
    <text
       xml:space="preserve"
       style="font-style:normal;font-variant:normal;font-weight:normal;font-stretch:normal;font-size:40px;line-height:125%;font-family:'STIX Math';-inkscape-font-specification:'STIX Math';letter-spacing:0px;word-spacing:0px;fill:#000000;fill-opacity:1;stroke:none;stroke-width:1px;stroke-linecap:butt;stroke-linejoin:miter;stroke-opacity:1"
       x="89.775093"
       y="72.039047"
       id="text3415"
       sodipodi:linespacing="125%"><tspan
         sodipodi:role="line"
         id="tspan3417"
         x="89.775093"
         y="72.039047"
         style="font-style:normal;font-variant:normal;font-weight:normal;font-stretch:normal;font-size:12.5px;font-family:'STIX Math';-inkscape-font-specification:'STIX Math'">1</tspan></text>
    <text
       xml:space="preserve"
       style="font-style:normal;font-variant:normal;font-weight:normal;font-stretch:normal;font-size:40px;line-height:125%;font-family:'STIX Math';-inkscape-font-specification:'STIX Math';letter-spacing:0px;word-spacing:0px;fill:#000000;fill-opacity:1;stroke:none;stroke-width:1px;stroke-linecap:butt;stroke-linejoin:miter;stroke-opacity:1"
       x="62.954453"
       y="21.791359"
       id="text3415-1"
       sodipodi:linespacing="125%"><tspan
         sodipodi:role="line"
         id="tspan3417-3"
         x="62.954453"
         y="21.791359"
         style="font-style:normal;font-variant:normal;font-weight:normal;font-stretch:normal;font-size:12.5px;font-family:'STIX Math';-inkscape-font-specification:'STIX Math'">2</tspan></text>
    <text
       xml:space="preserve"
       style="font-style:normal;font-variant:normal;font-weight:normal;font-stretch:normal;font-size:40px;line-height:125%;font-family:'STIX Math';-inkscape-font-specification:'STIX Math';letter-spacing:0px;word-spacing:0px;fill:#000000;fill-opacity:1;stroke:none;stroke-width:1px;stroke-linecap:butt;stroke-linejoin:miter;stroke-opacity:1"
       x="44.385269"
       y="11.781944"
       id="text3415-1-9"
       sodipodi:linespacing="125%"><tspan
         sodipodi:role="line"
         id="tspan3417-3-3"
         x="44.385269"
         y="11.781944"
         style="font-style:normal;font-variant:normal;font-weight:normal;font-stretch:normal;font-size:12.5px;font-family:'STIX Math';-inkscape-font-specification:'STIX Math'">3</tspan></text>
    <text
       xml:space="preserve"
       style="font-style:normal;font-variant:normal;font-weight:normal;font-stretch:normal;font-size:40px;line-height:125%;font-family:'STIX Math';-inkscape-font-specification:'STIX Math';letter-spacing:0px;word-spacing:0px;fill:#000000;fill-opacity:1;stroke:none;stroke-width:1px;stroke-linecap:butt;stroke-linejoin:miter;stroke-opacity:1"
       x="24.222771"
       y="17.781944"
       id="text3415-1-9-2"
       sodipodi:linespacing="125%"><tspan
         sodipodi:role="line"
         id="tspan3417-3-3-0"
         x="24.222771"
         y="17.781944"
         style="font-style:normal;font-variant:normal;font-weight:normal;font-stretch:normal;font-size:12.5px;font-family:'STIX Math';-inkscape-font-specification:'STIX Math'">4</tspan></text>
    <text
       xml:space="preserve"
       style="font-style:normal;font-variant:normal;font-weight:normal;font-stretch:normal;font-size:40px;line-height:125%;font-family:'STIX Math';-inkscape-font-specification:'STIX Math';letter-spacing:0px;word-spacing:0px;fill:#000000;fill-opacity:1;stroke:none;stroke-width:1px;stroke-linecap:butt;stroke-linejoin:miter;stroke-opacity:1"
       x="4.6412239"
       y="32.00605"
       id="text3415-1-9-9"
       sodipodi:linespacing="125%"><tspan
         sodipodi:role="line"
         id="tspan3417-3-3-2"
         x="4.6412239"
         y="32.00605"
         style="font-style:normal;font-variant:normal;font-weight:normal;font-stretch:normal;font-size:12.5px;font-family:'STIX Math';-inkscape-font-specification:'STIX Math'">5</tspan></text>
  </g>
  <g
     inkscape:groupmode="layer"
     id="layer3"
     inkscape:label="hourglass"
     style="display:inline">
    <g
       id="g4511"
       transform="matrix(1.1986204,0,0,1.1986204,-0.78871038,41.209078)">
      <circle
         style="fill:#ffffff;fill-opacity:1;stroke:#000000;stroke-width:0.22268943;stroke-miterlimit:1;stroke-dasharray:none;stroke-opacity:1"
         id="circle4472"
         cx="7.5198402"
         cy="27.385927"
         r="4.4893255" />
      <circle
         r="3.7609897"
         cy="27.385927"
         cx="7.5198402"
         id="circle4475"
         style="fill:#ffffff;fill-opacity:1;stroke:#000000;stroke-width:0.18656099;stroke-miterlimit:1;stroke-dasharray:none;stroke-opacity:1" />
      <circle
         style="fill:#ffffff;fill-opacity:1;stroke:#000000;stroke-width:0.14879705;stroke-miterlimit:1;stroke-dasharray:none;stroke-opacity:1"
         id="circle4477"
         cx="7.5198402"
         cy="27.385927"
         r="2.9996884" />
      <circle
         r="0.56116569"
         cy="27.385927"
         cx="7.5198402"
         id="circle4479"
         style="fill:#ffffff;fill-opacity:1;stroke:#000000;stroke-width:0.02783618;stroke-miterlimit:1;stroke-dasharray:none;stroke-opacity:1" />
      <circle
         style="fill:#ffffff;fill-opacity:1;stroke:#000000;stroke-width:0.1088336;stroke-miterlimit:1;stroke-dasharray:none;stroke-opacity:1"
         id="circle4481"
         cx="7.5198402"
         cy="27.385927"
         r="2.194042" />
      <circle
         r="1.5441877"
         cy="27.385927"
         cx="7.5198402"
         id="circle4483"
         style="fill:#ffffff;fill-opacity:1;stroke:#000000;stroke-width:0.07659817;stroke-miterlimit:1;stroke-dasharray:none;stroke-opacity:1" />
      <circle
         style="fill:#ffffff;fill-opacity:1;stroke:#000000;stroke-width:0.05689874;stroke-miterlimit:1;stroke-dasharray:none;stroke-opacity:1"
         id="circle4485"
         cx="7.5198402"
         cy="27.385927"
         r="1.1470544" />
      <circle
         r="0.71381843"
         cy="27.385927"
         cx="7.5198402"
         id="circle4487"
         style="fill:#ffffff;fill-opacity:1;stroke:#000000;stroke-width:0.03540842;stroke-miterlimit:1;stroke-dasharray:none;stroke-opacity:1" />
      <circle
         style="fill:#ffffff;fill-opacity:1;stroke:#000000;stroke-width:0.01749981;stroke-miterlimit:1;stroke-dasharray:none;stroke-opacity:1"
         id="circle4489"
         cx="7.5198402"
         cy="27.385927"
         r="0.35278878" />
    </g>
    <g
       transform="matrix(1.1986204,0,0,1.1986204,17.21129,31.209078)"
       id="g4941">
      <circle
         r="4.4893255"
         cy="27.385927"
         cx="7.5198402"
         id="circle4943"
         style="fill:#ffffff;fill-opacity:1;stroke:#000000;stroke-width:0.22268943;stroke-miterlimit:1;stroke-dasharray:none;stroke-opacity:1" />
      <circle
         style="fill:#ffffff;fill-opacity:1;stroke:#000000;stroke-width:0.18656099;stroke-miterlimit:1;stroke-dasharray:none;stroke-opacity:1"
         id="circle4945"
         cx="7.5198402"
         cy="27.385927"
         r="3.7609897" />
      <circle
         r="2.9996884"
         cy="27.385927"
         cx="7.5198402"
         id="circle4947"
         style="fill:#ffffff;fill-opacity:1;stroke:#000000;stroke-width:0.14879705;stroke-miterlimit:1;stroke-dasharray:none;stroke-opacity:1" />
      <circle
         style="fill:#ffffff;fill-opacity:1;stroke:#000000;stroke-width:0.02783618;stroke-miterlimit:1;stroke-dasharray:none;stroke-opacity:1"
         id="circle4949"
         cx="7.5198402"
         cy="27.385927"
         r="0.56116569" />
      <circle
         r="2.194042"
         cy="27.385927"
         cx="7.5198402"
         id="circle4951"
         style="fill:#ffffff;fill-opacity:1;stroke:#000000;stroke-width:0.1088336;stroke-miterlimit:1;stroke-dasharray:none;stroke-opacity:1" />
      <circle
         style="fill:#ffffff;fill-opacity:1;stroke:#000000;stroke-width:0.07659817;stroke-miterlimit:1;stroke-dasharray:none;stroke-opacity:1"
         id="circle4953"
         cx="7.5198402"
         cy="27.385927"
         r="1.5441877" />
      <circle
         r="1.1470544"
         cy="27.385927"
         cx="7.5198402"
         id="circle4955"
         style="fill:#ffffff;fill-opacity:1;stroke:#000000;stroke-width:0.05689874;stroke-miterlimit:1;stroke-dasharray:none;stroke-opacity:1" />
      <circle
         style="fill:#ffffff;fill-opacity:1;stroke:#000000;stroke-width:0.03540842;stroke-miterlimit:1;stroke-dasharray:none;stroke-opacity:1"
         id="circle4957"
         cx="7.5198402"
         cy="27.385927"
         r="0.71381843" />
      <circle
         r="0.35278878"
         cy="27.385927"
         cx="7.5198402"
         id="circle4959"
         style="fill:#ffffff;fill-opacity:1;stroke:#000000;stroke-width:0.01749981;stroke-miterlimit:1;stroke-dasharray:none;stroke-opacity:1" />
    </g>
    <g
       id="g4961"
       transform="matrix(1.1986204,0,0,1.1986204,37.21129,31.209078)">
      <circle
         style="fill:#ffffff;fill-opacity:1;stroke:#000000;stroke-width:0.22268943;stroke-miterlimit:1;stroke-dasharray:none;stroke-opacity:1"
         id="circle4963"
         cx="7.5198402"
         cy="27.385927"
         r="4.4893255" />
      <circle
         r="3.7609897"
         cy="27.385927"
         cx="7.5198402"
         id="circle4965"
         style="fill:#ffffff;fill-opacity:1;stroke:#000000;stroke-width:0.18656099;stroke-miterlimit:1;stroke-dasharray:none;stroke-opacity:1" />
      <circle
         style="fill:#ffffff;fill-opacity:1;stroke:#000000;stroke-width:0.14879705;stroke-miterlimit:1;stroke-dasharray:none;stroke-opacity:1"
         id="circle4967"
         cx="7.5198402"
         cy="27.385927"
         r="2.9996884" />
      <circle
         r="0.56116569"
         cy="27.385927"
         cx="7.5198402"
         id="circle4969"
         style="fill:#ffffff;fill-opacity:1;stroke:#000000;stroke-width:0.02783618;stroke-miterlimit:1;stroke-dasharray:none;stroke-opacity:1" />
      <circle
         style="fill:#ffffff;fill-opacity:1;stroke:#000000;stroke-width:0.1088336;stroke-miterlimit:1;stroke-dasharray:none;stroke-opacity:1"
         id="circle4971"
         cx="7.5198402"
         cy="27.385927"
         r="2.194042" />
      <circle
         r="1.5441877"
         cy="27.385927"
         cx="7.5198402"
         id="circle4973"
         style="fill:#ffffff;fill-opacity:1;stroke:#000000;stroke-width:0.07659817;stroke-miterlimit:1;stroke-dasharray:none;stroke-opacity:1" />
      <circle
         style="fill:#ffffff;fill-opacity:1;stroke:#000000;stroke-width:0.05689874;stroke-miterlimit:1;stroke-dasharray:none;stroke-opacity:1"
         id="circle4975"
         cx="7.5198402"
         cy="27.385927"
         r="1.1470544" />
      <circle
         r="0.71381843"
         cy="27.385927"
         cx="7.5198402"
         id="circle4977"
         style="fill:#ffffff;fill-opacity:1;stroke:#000000;stroke-width:0.03540842;stroke-miterlimit:1;stroke-dasharray:none;stroke-opacity:1" />
      <circle
         style="fill:#ffffff;fill-opacity:1;stroke:#000000;stroke-width:0.01749981;stroke-miterlimit:1;stroke-dasharray:none;stroke-opacity:1"
         id="circle4979"
         cx="7.5198402"
         cy="27.385927"
         r="0.35278878" />
    </g>
    <g
       transform="matrix(1.1986204,0,0,1.1986204,55.21129,35.209078)"
       id="g4981">
      <circle
         r="4.4893255"
         cy="27.385927"
         cx="7.5198402"
         id="circle4983"
         style="fill:#ffffff;fill-opacity:1;stroke:#000000;stroke-width:0.22268943;stroke-miterlimit:1;stroke-dasharray:none;stroke-opacity:1" />
      <circle
         style="fill:#ffffff;fill-opacity:1;stroke:#000000;stroke-width:0.18656099;stroke-miterlimit:1;stroke-dasharray:none;stroke-opacity:1"
         id="circle4985"
         cx="7.5198402"
         cy="27.385927"
         r="3.7609897" />
      <circle
         r="2.9996884"
         cy="27.385927"
         cx="7.5198402"
         id="circle4987"
         style="fill:#ffffff;fill-opacity:1;stroke:#000000;stroke-width:0.14879705;stroke-miterlimit:1;stroke-dasharray:none;stroke-opacity:1" />
      <circle
         style="fill:#ffffff;fill-opacity:1;stroke:#000000;stroke-width:0.02783618;stroke-miterlimit:1;stroke-dasharray:none;stroke-opacity:1"
         id="circle4989"
         cx="7.5198402"
         cy="27.385927"
         r="0.56116569" />
      <circle
         r="2.194042"
         cy="27.385927"
         cx="7.5198402"
         id="circle4991"
         style="fill:#ffffff;fill-opacity:1;stroke:#000000;stroke-width:0.1088336;stroke-miterlimit:1;stroke-dasharray:none;stroke-opacity:1" />
      <circle
         style="fill:#ffffff;fill-opacity:1;stroke:#000000;stroke-width:0.07659817;stroke-miterlimit:1;stroke-dasharray:none;stroke-opacity:1"
         id="circle4993"
         cx="7.5198402"
         cy="27.385927"
         r="1.5441877" />
      <circle
         r="1.1470544"
         cy="27.385927"
         cx="7.5198402"
         id="circle4995"
         style="fill:#ffffff;fill-opacity:1;stroke:#000000;stroke-width:0.05689874;stroke-miterlimit:1;stroke-dasharray:none;stroke-opacity:1" />
      <circle
         style="fill:#ffffff;fill-opacity:1;stroke:#000000;stroke-width:0.03540842;stroke-miterlimit:1;stroke-dasharray:none;stroke-opacity:1"
         id="circle4997"
         cx="7.5198402"
         cy="27.385927"
         r="0.71381843" />
      <circle
         r="0.35278878"
         cy="27.385927"
         cx="7.5198402"
         id="circle4999"
         style="fill:#ffffff;fill-opacity:1;stroke:#000000;stroke-width:0.01749981;stroke-miterlimit:1;stroke-dasharray:none;stroke-opacity:1" />
    </g>
    <g
       id="g5019"
       transform="matrix(0.91935026,0.76908125,-0.76908125,0.91935026,77.883825,71.141744)">
      <circle
         style="fill:#ffffff;fill-opacity:1;stroke:#000000;stroke-width:0.22268943;stroke-miterlimit:1;stroke-dasharray:none;stroke-opacity:1"
         id="circle5021"
         cx="7.5198402"
         cy="27.385927"
         r="4.4893255" />
      <circle
         r="3.7609897"
         cy="27.385927"
         cx="7.5198402"
         id="circle5023"
         style="fill:#ffffff;fill-opacity:1;stroke:#000000;stroke-width:0.18656099;stroke-miterlimit:1;stroke-dasharray:none;stroke-opacity:1" />
      <circle
         style="fill:#ffffff;fill-opacity:1;stroke:#000000;stroke-width:0.14879705;stroke-miterlimit:1;stroke-dasharray:none;stroke-opacity:1"
         id="circle5025"
         cx="7.5198402"
         cy="27.385927"
         r="2.9996884" />
      <circle
         r="0.56116569"
         cy="27.385927"
         cx="7.5198402"
         id="circle5027"
         style="fill:#ffffff;fill-opacity:1;stroke:#000000;stroke-width:0.02783618;stroke-miterlimit:1;stroke-dasharray:none;stroke-opacity:1" />
      <circle
         style="fill:#ffffff;fill-opacity:1;stroke:#000000;stroke-width:0.1088336;stroke-miterlimit:1;stroke-dasharray:none;stroke-opacity:1"
         id="circle5029"
         cx="7.5198402"
         cy="27.385927"
         r="2.194042" />
      <circle
         r="1.5441877"
         cy="27.385927"
         cx="7.5198402"
         id="circle5031"
         style="fill:#ffffff;fill-opacity:1;stroke:#000000;stroke-width:0.07659817;stroke-miterlimit:1;stroke-dasharray:none;stroke-opacity:1" />
      <circle
         style="fill:#ffffff;fill-opacity:1;stroke:#000000;stroke-width:0.05689874;stroke-miterlimit:1;stroke-dasharray:none;stroke-opacity:1"
         id="circle5033"
         cx="7.5198402"
         cy="27.385927"
         r="1.1470544" />
      <circle
         r="0.71381843"
         cy="27.385927"
         cx="7.5198402"
         id="circle5035"
         style="fill:#ffffff;fill-opacity:1;stroke:#000000;stroke-width:0.03540842;stroke-miterlimit:1;stroke-dasharray:none;stroke-opacity:1" />
      <circle
         style="fill:#ffffff;fill-opacity:1;stroke:#000000;stroke-width:0.01749981;stroke-miterlimit:1;stroke-dasharray:none;stroke-opacity:1"
         id="circle5037"
         cx="7.5198402"
         cy="27.385927"
         r="0.35278878" />
    </g>
  </g>
  <g
     inkscape:groupmode="layer"
     id="layer4"
     inkscape:label="velocity">
    <g
       style="display:inline;stroke:#000000;stroke-width:0.30000001;stroke-miterlimit:1;stroke-dasharray:none;stroke-opacity:1"
       id="g4789"
       transform="matrix(0.08490382,-0.49372955,0.49372955,0.08490382,-37.625235,102.29398)"
       inkscape:transform-center-x="-0.081374528"
       inkscape:transform-center-y="-15.051487">
      <path
         style="fill:#e6e6e6;fill-opacity:1;stroke:#000000;stroke-width:0.30000001;stroke-miterlimit:1;stroke-dasharray:none;stroke-opacity:1"
         d="m 89.610746,76.337845 c 0.05384,-0.04839 1.338975,-0.521305 2.855844,-1.050909 l 2.757943,-0.962917 0.134498,0.639725 c 0.336571,1.600858 0.599894,1.462094 -2.774512,1.462094 -1.689421,0 -3.027619,-0.0396 -2.973773,-0.08799 z"
         id="path4791"
         inkscape:connector-curvature="0" />
      <path
         style="fill:#e6e6e6;fill-opacity:1;stroke:#000000;stroke-width:0.30000001;stroke-miterlimit:1;stroke-dasharray:none;stroke-opacity:1"
         d="m 96.083042,75.324577 c -0.176154,-1.285182 -0.207043,-1.255435 2.121023,-2.042557 l 1.681509,-0.56852 0.256936,1.020365 c 0.14131,0.561201 0.25693,1.396477 0.25693,1.856169 l 0,0.835804 -2.082729,0 -2.082724,0 -0.150945,-1.101261 z"
         id="path4793"
         inkscape:connector-curvature="0" />
      <path
         style="fill:#e6e6e6;fill-opacity:1;stroke:#000000;stroke-width:0.30000001;stroke-miterlimit:1;stroke-dasharray:none;stroke-opacity:1"
         d="m 101.33929,75.654674 c 0,-0.42414 -0.14185,-1.317988 -0.31521,-1.98633 -0.35964,-1.386421 -0.56909,-1.174814 2.06419,-2.08542 0.89733,-0.310302 1.70239,-0.484218 1.78902,-0.386481 0.23753,0.26799 0.64122,2.110053 0.8242,3.76088 l 0.16278,1.468515 -2.26249,0 -2.26249,0 0,-0.771164 z"
         id="path4795"
         inkscape:connector-curvature="0" />
      <path
         style="fill:#e6e6e6;fill-opacity:1;stroke:#000000;stroke-width:0.30000001;stroke-miterlimit:1;stroke-dasharray:none;stroke-opacity:1"
         d="m 106.87758,74.957323 c -0.0888,-0.807683 -0.32096,-2.092344 -0.51585,-2.854802 -0.29114,-1.139051 -0.29918,-1.421241 -0.0451,-1.582284 0.38449,-0.243671 4.44892,-1.613196 4.78758,-1.613196 0.29348,0 0.95634,2.501254 1.2765,4.816729 0.40947,2.961326 0.65437,2.702068 -2.55247,2.702068 l -2.7892,0 -0.1615,-1.468515 z"
         id="path4797"
         inkscape:connector-curvature="0" />
      <path
         style="fill:#e6e6e6;fill-opacity:1;stroke:#000000;stroke-width:0.30000001;stroke-miterlimit:1;stroke-dasharray:none;stroke-opacity:1"
         d="m 113.94631,74.470802 c -0.0827,-1.07527 -0.39334,-2.919167 -0.69042,-4.097549 l -0.54014,-2.142512 2.94664,-1.041322 c 2.04765,-0.723628 2.9946,-0.959762 3.10386,-0.773987 0.5746,0.977014 1.60499,6.565126 1.60499,8.70438 l 0,1.306026 -3.13733,0 -3.13733,0 -0.15027,-1.955036 z"
         id="path4799"
         inkscape:connector-curvature="0" />
      <path
         style="fill:#e6e6e6;fill-opacity:1;stroke:#000000;stroke-width:0.30000001;stroke-miterlimit:1;stroke-dasharray:none;stroke-opacity:1"
         d="m 122.25094,74.811879 c 0,-1.854241 -0.50484,-5.012127 -1.20089,-7.511827 -0.2641,-0.948459 -0.44557,-1.757217 -0.40327,-1.79724 0.0423,-0.04002 1.453,-0.55302 3.13491,-1.139992 1.6819,-0.586972 3.23442,-1.134921 3.45004,-1.217664 0.31933,-0.122538 0.47988,0.14729 0.86554,1.454687 0.83564,2.832786 1.47264,6.467573 1.60927,9.182668 l 0.13303,2.643327 -3.79432,0 -3.79431,0 0,-1.613959 z"
         id="path4801"
         inkscape:connector-curvature="0" />
      <path
         style="fill:#e6e6e6;fill-opacity:1;stroke:#000000;stroke-width:0.30000001;stroke-miterlimit:1;stroke-dasharray:none;stroke-opacity:1"
         d="m 132.26204,75.192285 c -0.0694,-0.678454 -0.18894,-2.026551 -0.26574,-2.99577 -0.16335,-2.061561 -0.87274,-5.746188 -1.57241,-8.167225 -0.27112,-0.938168 -0.44992,-1.746806 -0.39733,-1.796975 0.29332,-0.279812 7.63329,-2.679938 7.76629,-2.53953 0.27753,0.292982 1.33698,4.072766 1.82533,6.512188 0.49599,2.477536 0.85633,5.374083 1.04501,8.399906 l 0.11354,1.820959 -4.1943,0 -4.19429,0 -0.1261,-1.233553 z"
         id="path4803"
         inkscape:connector-curvature="0" />
      <path
         style="fill:#e6e6e6;fill-opacity:1;stroke:#000000;stroke-width:0.30000001;stroke-miterlimit:1;stroke-dasharray:none;stroke-opacity:1"
         d="m 143.63252,75.073364 c 0,-3.45415 -1.07425,-10.061589 -2.31354,-14.230029 -0.37364,-1.256748 -0.59979,-2.33416 -0.50257,-2.394248 0.0972,-0.06009 1.6701,-0.625714 3.49527,-1.256945 l 3.3185,-1.147693 0.5738,1.90827 c 1.67102,5.557255 2.37141,9.616748 2.83246,16.417198 l 0.13939,2.055921 -3.77166,0 -3.77165,0 0,-1.352474 z"
         id="path4805"
         inkscape:connector-curvature="0" />
    </g>
    <g
       inkscape:transform-center-y="-15.051487"
       inkscape:transform-center-x="-0.081374528"
       transform="matrix(0.08490382,-0.49372955,0.49372955,0.08490382,-18.565085,94.293977)"
       id="g4887"
       style="display:inline;stroke:#000000;stroke-width:0.30000001;stroke-miterlimit:1;stroke-dasharray:none;stroke-opacity:1">
      <path
         inkscape:connector-curvature="0"
         id="path4889"
         d="m 89.610746,76.337845 c 0.05384,-0.04839 1.338975,-0.521305 2.855844,-1.050909 l 2.757943,-0.962917 0.134498,0.639725 c 0.336571,1.600858 0.599894,1.462094 -2.774512,1.462094 -1.689421,0 -3.027619,-0.0396 -2.973773,-0.08799 z"
         style="fill:#e6e6e6;fill-opacity:1;stroke:#000000;stroke-width:0.30000001;stroke-miterlimit:1;stroke-dasharray:none;stroke-opacity:1" />
      <path
         inkscape:connector-curvature="0"
         id="path4891"
         d="m 96.083042,75.324577 c -0.176154,-1.285182 -0.207043,-1.255435 2.121023,-2.042557 l 1.681509,-0.56852 0.256936,1.020365 c 0.14131,0.561201 0.25693,1.396477 0.25693,1.856169 l 0,0.835804 -2.082729,0 -2.082724,0 -0.150945,-1.101261 z"
         style="fill:#e6e6e6;fill-opacity:1;stroke:#000000;stroke-width:0.30000001;stroke-miterlimit:1;stroke-dasharray:none;stroke-opacity:1" />
      <path
         inkscape:connector-curvature="0"
         id="path4893"
         d="m 101.33929,75.654674 c 0,-0.42414 -0.14185,-1.317988 -0.31521,-1.98633 -0.35964,-1.386421 -0.56909,-1.174814 2.06419,-2.08542 0.89733,-0.310302 1.70239,-0.484218 1.78902,-0.386481 0.23753,0.26799 0.64122,2.110053 0.8242,3.76088 l 0.16278,1.468515 -2.26249,0 -2.26249,0 0,-0.771164 z"
         style="fill:#e6e6e6;fill-opacity:1;stroke:#000000;stroke-width:0.30000001;stroke-miterlimit:1;stroke-dasharray:none;stroke-opacity:1" />
      <path
         inkscape:connector-curvature="0"
         id="path4895"
         d="m 106.87758,74.957323 c -0.0888,-0.807683 -0.32096,-2.092344 -0.51585,-2.854802 -0.29114,-1.139051 -0.29918,-1.421241 -0.0451,-1.582284 0.38449,-0.243671 4.44892,-1.613196 4.78758,-1.613196 0.29348,0 0.95634,2.501254 1.2765,4.816729 0.40947,2.961326 0.65437,2.702068 -2.55247,2.702068 l -2.7892,0 -0.1615,-1.468515 z"
         style="fill:#e6e6e6;fill-opacity:1;stroke:#000000;stroke-width:0.30000001;stroke-miterlimit:1;stroke-dasharray:none;stroke-opacity:1" />
      <path
         inkscape:connector-curvature="0"
         id="path4897"
         d="m 113.94631,74.470802 c -0.0827,-1.07527 -0.39334,-2.919167 -0.69042,-4.097549 l -0.54014,-2.142512 2.94664,-1.041322 c 2.04765,-0.723628 2.9946,-0.959762 3.10386,-0.773987 0.5746,0.977014 1.60499,6.565126 1.60499,8.70438 l 0,1.306026 -3.13733,0 -3.13733,0 -0.15027,-1.955036 z"
         style="fill:#e6e6e6;fill-opacity:1;stroke:#000000;stroke-width:0.30000001;stroke-miterlimit:1;stroke-dasharray:none;stroke-opacity:1" />
      <path
         inkscape:connector-curvature="0"
         id="path4899"
         d="m 122.25094,74.811879 c 0,-1.854241 -0.50484,-5.012127 -1.20089,-7.511827 -0.2641,-0.948459 -0.44557,-1.757217 -0.40327,-1.79724 0.0423,-0.04002 1.453,-0.55302 3.13491,-1.139992 1.6819,-0.586972 3.23442,-1.134921 3.45004,-1.217664 0.31933,-0.122538 0.47988,0.14729 0.86554,1.454687 0.83564,2.832786 1.47264,6.467573 1.60927,9.182668 l 0.13303,2.643327 -3.79432,0 -3.79431,0 0,-1.613959 z"
         style="fill:#e6e6e6;fill-opacity:1;stroke:#000000;stroke-width:0.30000001;stroke-miterlimit:1;stroke-dasharray:none;stroke-opacity:1" />
      <path
         inkscape:connector-curvature="0"
         id="path4901"
         d="m 132.26204,75.192285 c -0.0694,-0.678454 -0.18894,-2.026551 -0.26574,-2.99577 -0.16335,-2.061561 -0.87274,-5.746188 -1.57241,-8.167225 -0.27112,-0.938168 -0.44992,-1.746806 -0.39733,-1.796975 0.29332,-0.279812 7.63329,-2.679938 7.76629,-2.53953 0.27753,0.292982 1.33698,4.072766 1.82533,6.512188 0.49599,2.477536 0.85633,5.374083 1.04501,8.399906 l 0.11354,1.820959 -4.1943,0 -4.19429,0 -0.1261,-1.233553 z"
         style="fill:#e6e6e6;fill-opacity:1;stroke:#000000;stroke-width:0.30000001;stroke-miterlimit:1;stroke-dasharray:none;stroke-opacity:1" />
      <path
         inkscape:connector-curvature="0"
         id="path4903"
         d="m 143.63252,75.073364 c 0,-3.45415 -1.07425,-10.061589 -2.31354,-14.230029 -0.37364,-1.256748 -0.59979,-2.33416 -0.50257,-2.394248 0.0972,-0.06009 1.6701,-0.625714 3.49527,-1.256945 l 3.3185,-1.147693 0.5738,1.90827 c 1.67102,5.557255 2.37141,9.616748 2.83246,16.417198 l 0.13939,2.055921 -3.77166,0 -3.77165,0 0,-1.352474 z"
         style="fill:#e6e6e6;fill-opacity:1;stroke:#000000;stroke-width:0.30000001;stroke-miterlimit:1;stroke-dasharray:none;stroke-opacity:1" />
    </g>
    <g
       style="display:inline;stroke:#000000;stroke-width:0.30000001;stroke-miterlimit:1;stroke-dasharray:none;stroke-opacity:1"
       id="g4905"
       transform="matrix(0.08490382,-0.49372955,0.49372955,0.08490382,1.199953,92.654879)"
       inkscape:transform-center-x="-0.081374528"
       inkscape:transform-center-y="-15.051487">
      <path
         style="fill:#e6e6e6;fill-opacity:1;stroke:#000000;stroke-width:0.30000001;stroke-miterlimit:1;stroke-dasharray:none;stroke-opacity:1"
         d="m 89.610746,76.337845 c 0.05384,-0.04839 1.338975,-0.521305 2.855844,-1.050909 l 2.757943,-0.962917 0.134498,0.639725 c 0.336571,1.600858 0.599894,1.462094 -2.774512,1.462094 -1.689421,0 -3.027619,-0.0396 -2.973773,-0.08799 z"
         id="path4907"
         inkscape:connector-curvature="0" />
      <path
         style="fill:#e6e6e6;fill-opacity:1;stroke:#000000;stroke-width:0.30000001;stroke-miterlimit:1;stroke-dasharray:none;stroke-opacity:1"
         d="m 96.083042,75.324577 c -0.176154,-1.285182 -0.207043,-1.255435 2.121023,-2.042557 l 1.681509,-0.56852 0.256936,1.020365 c 0.14131,0.561201 0.25693,1.396477 0.25693,1.856169 l 0,0.835804 -2.082729,0 -2.082724,0 -0.150945,-1.101261 z"
         id="path4909"
         inkscape:connector-curvature="0" />
      <path
         style="fill:#e6e6e6;fill-opacity:1;stroke:#000000;stroke-width:0.30000001;stroke-miterlimit:1;stroke-dasharray:none;stroke-opacity:1"
         d="m 101.33929,75.654674 c 0,-0.42414 -0.14185,-1.317988 -0.31521,-1.98633 -0.35964,-1.386421 -0.56909,-1.174814 2.06419,-2.08542 0.89733,-0.310302 1.70239,-0.484218 1.78902,-0.386481 0.23753,0.26799 0.64122,2.110053 0.8242,3.76088 l 0.16278,1.468515 -2.26249,0 -2.26249,0 0,-0.771164 z"
         id="path4911"
         inkscape:connector-curvature="0" />
      <path
         style="fill:#e6e6e6;fill-opacity:1;stroke:#000000;stroke-width:0.30000001;stroke-miterlimit:1;stroke-dasharray:none;stroke-opacity:1"
         d="m 106.87758,74.957323 c -0.0888,-0.807683 -0.32096,-2.092344 -0.51585,-2.854802 -0.29114,-1.139051 -0.29918,-1.421241 -0.0451,-1.582284 0.38449,-0.243671 4.44892,-1.613196 4.78758,-1.613196 0.29348,0 0.95634,2.501254 1.2765,4.816729 0.40947,2.961326 0.65437,2.702068 -2.55247,2.702068 l -2.7892,0 -0.1615,-1.468515 z"
         id="path4913"
         inkscape:connector-curvature="0" />
      <path
         style="fill:#e6e6e6;fill-opacity:1;stroke:#000000;stroke-width:0.30000001;stroke-miterlimit:1;stroke-dasharray:none;stroke-opacity:1"
         d="m 113.94631,74.470802 c -0.0827,-1.07527 -0.39334,-2.919167 -0.69042,-4.097549 l -0.54014,-2.142512 2.94664,-1.041322 c 2.04765,-0.723628 2.9946,-0.959762 3.10386,-0.773987 0.5746,0.977014 1.60499,6.565126 1.60499,8.70438 l 0,1.306026 -3.13733,0 -3.13733,0 -0.15027,-1.955036 z"
         id="path4915"
         inkscape:connector-curvature="0" />
      <path
         style="fill:#e6e6e6;fill-opacity:1;stroke:#000000;stroke-width:0.30000001;stroke-miterlimit:1;stroke-dasharray:none;stroke-opacity:1"
         d="m 122.25094,74.811879 c 0,-1.854241 -0.50484,-5.012127 -1.20089,-7.511827 -0.2641,-0.948459 -0.44557,-1.757217 -0.40327,-1.79724 0.0423,-0.04002 1.453,-0.55302 3.13491,-1.139992 1.6819,-0.586972 3.23442,-1.134921 3.45004,-1.217664 0.31933,-0.122538 0.47988,0.14729 0.86554,1.454687 0.83564,2.832786 1.47264,6.467573 1.60927,9.182668 l 0.13303,2.643327 -3.79432,0 -3.79431,0 0,-1.613959 z"
         id="path4917"
         inkscape:connector-curvature="0" />
      <path
         style="fill:#e6e6e6;fill-opacity:1;stroke:#000000;stroke-width:0.30000001;stroke-miterlimit:1;stroke-dasharray:none;stroke-opacity:1"
         d="m 132.26204,75.192285 c -0.0694,-0.678454 -0.18894,-2.026551 -0.26574,-2.99577 -0.16335,-2.061561 -0.87274,-5.746188 -1.57241,-8.167225 -0.27112,-0.938168 -0.44992,-1.746806 -0.39733,-1.796975 0.29332,-0.279812 7.63329,-2.679938 7.76629,-2.53953 0.27753,0.292982 1.33698,4.072766 1.82533,6.512188 0.49599,2.477536 0.85633,5.374083 1.04501,8.399906 l 0.11354,1.820959 -4.1943,0 -4.19429,0 -0.1261,-1.233553 z"
         id="path4919"
         inkscape:connector-curvature="0" />
      <path
         style="fill:#e6e6e6;fill-opacity:1;stroke:#000000;stroke-width:0.30000001;stroke-miterlimit:1;stroke-dasharray:none;stroke-opacity:1"
         d="m 143.63252,75.073364 c 0,-3.45415 -1.07425,-10.061589 -2.31354,-14.230029 -0.37364,-1.256748 -0.59979,-2.33416 -0.50257,-2.394248 0.0972,-0.06009 1.6701,-0.625714 3.49527,-1.256945 l 3.3185,-1.147693 0.5738,1.90827 c 1.67102,5.557255 2.37141,9.616748 2.83246,16.417198 l 0.13939,2.055921 -3.77166,0 -3.77165,0 0,-1.352474 z"
         id="path4921"
         inkscape:connector-curvature="0" />
    </g>
    <g
       inkscape:transform-center-y="-15.051487"
       inkscape:transform-center-x="-0.081374528"
       transform="matrix(0.08490382,-0.49372955,0.49372955,0.08490382,20.374765,96.884203)"
       id="g4923"
       style="display:inline;stroke:#000000;stroke-width:0.30000001;stroke-miterlimit:1;stroke-dasharray:none;stroke-opacity:1">
      <path
         inkscape:connector-curvature="0"
         id="path4925"
         d="m 89.610746,76.337845 c 0.05384,-0.04839 1.338975,-0.521305 2.855844,-1.050909 l 2.757943,-0.962917 0.134498,0.639725 c 0.336571,1.600858 0.599894,1.462094 -2.774512,1.462094 -1.689421,0 -3.027619,-0.0396 -2.973773,-0.08799 z"
         style="fill:#e6e6e6;fill-opacity:1;stroke:#000000;stroke-width:0.30000001;stroke-miterlimit:1;stroke-dasharray:none;stroke-opacity:1" />
      <path
         inkscape:connector-curvature="0"
         id="path4927"
         d="m 96.083042,75.324577 c -0.176154,-1.285182 -0.207043,-1.255435 2.121023,-2.042557 l 1.681509,-0.56852 0.256936,1.020365 c 0.14131,0.561201 0.25693,1.396477 0.25693,1.856169 l 0,0.835804 -2.082729,0 -2.082724,0 -0.150945,-1.101261 z"
         style="fill:#e6e6e6;fill-opacity:1;stroke:#000000;stroke-width:0.30000001;stroke-miterlimit:1;stroke-dasharray:none;stroke-opacity:1" />
      <path
         inkscape:connector-curvature="0"
         id="path4929"
         d="m 101.33929,75.654674 c 0,-0.42414 -0.14185,-1.317988 -0.31521,-1.98633 -0.35964,-1.386421 -0.56909,-1.174814 2.06419,-2.08542 0.89733,-0.310302 1.70239,-0.484218 1.78902,-0.386481 0.23753,0.26799 0.64122,2.110053 0.8242,3.76088 l 0.16278,1.468515 -2.26249,0 -2.26249,0 0,-0.771164 z"
         style="fill:#e6e6e6;fill-opacity:1;stroke:#000000;stroke-width:0.30000001;stroke-miterlimit:1;stroke-dasharray:none;stroke-opacity:1" />
      <path
         inkscape:connector-curvature="0"
         id="path4931"
         d="m 106.87758,74.957323 c -0.0888,-0.807683 -0.32096,-2.092344 -0.51585,-2.854802 -0.29114,-1.139051 -0.29918,-1.421241 -0.0451,-1.582284 0.38449,-0.243671 4.44892,-1.613196 4.78758,-1.613196 0.29348,0 0.95634,2.501254 1.2765,4.816729 0.40947,2.961326 0.65437,2.702068 -2.55247,2.702068 l -2.7892,0 -0.1615,-1.468515 z"
         style="fill:#e6e6e6;fill-opacity:1;stroke:#000000;stroke-width:0.30000001;stroke-miterlimit:1;stroke-dasharray:none;stroke-opacity:1" />
      <path
         inkscape:connector-curvature="0"
         id="path4933"
         d="m 113.94631,74.470802 c -0.0827,-1.07527 -0.39334,-2.919167 -0.69042,-4.097549 l -0.54014,-2.142512 2.94664,-1.041322 c 2.04765,-0.723628 2.9946,-0.959762 3.10386,-0.773987 0.5746,0.977014 1.60499,6.565126 1.60499,8.70438 l 0,1.306026 -3.13733,0 -3.13733,0 -0.15027,-1.955036 z"
         style="fill:#e6e6e6;fill-opacity:1;stroke:#000000;stroke-width:0.30000001;stroke-miterlimit:1;stroke-dasharray:none;stroke-opacity:1" />
      <path
         inkscape:connector-curvature="0"
         id="path4935"
         d="m 122.25094,74.811879 c 0,-1.854241 -0.50484,-5.012127 -1.20089,-7.511827 -0.2641,-0.948459 -0.44557,-1.757217 -0.40327,-1.79724 0.0423,-0.04002 1.453,-0.55302 3.13491,-1.139992 1.6819,-0.586972 3.23442,-1.134921 3.45004,-1.217664 0.31933,-0.122538 0.47988,0.14729 0.86554,1.454687 0.83564,2.832786 1.47264,6.467573 1.60927,9.182668 l 0.13303,2.643327 -3.79432,0 -3.79431,0 0,-1.613959 z"
         style="fill:#e6e6e6;fill-opacity:1;stroke:#000000;stroke-width:0.30000001;stroke-miterlimit:1;stroke-dasharray:none;stroke-opacity:1" />
      <path
         inkscape:connector-curvature="0"
         id="path4937"
         d="m 132.26204,75.192285 c -0.0694,-0.678454 -0.18894,-2.026551 -0.26574,-2.99577 -0.16335,-2.061561 -0.87274,-5.746188 -1.57241,-8.167225 -0.27112,-0.938168 -0.44992,-1.746806 -0.39733,-1.796975 0.29332,-0.279812 7.63329,-2.679938 7.76629,-2.53953 0.27753,0.292982 1.33698,4.072766 1.82533,6.512188 0.49599,2.477536 0.85633,5.374083 1.04501,8.399906 l 0.11354,1.820959 -4.1943,0 -4.19429,0 -0.1261,-1.233553 z"
         style="fill:#e6e6e6;fill-opacity:1;stroke:#000000;stroke-width:0.30000001;stroke-miterlimit:1;stroke-dasharray:none;stroke-opacity:1" />
      <path
         inkscape:connector-curvature="0"
         id="path4939"
         d="m 143.63252,75.073364 c 0,-3.45415 -1.07425,-10.061589 -2.31354,-14.230029 -0.37364,-1.256748 -0.59979,-2.33416 -0.50257,-2.394248 0.0972,-0.06009 1.6701,-0.625714 3.49527,-1.256945 l 3.3185,-1.147693 0.5738,1.90827 c 1.67102,5.557255 2.37141,9.616748 2.83246,16.417198 l 0.13939,2.055921 -3.77166,0 -3.77165,0 0,-1.352474 z"
         style="fill:#e6e6e6;fill-opacity:1;stroke:#000000;stroke-width:0.30000001;stroke-miterlimit:1;stroke-dasharray:none;stroke-opacity:1" />
    </g>
    <g
       style="display:inline;stroke:#000000;stroke-width:0.30000001;stroke-miterlimit:1;stroke-dasharray:none;stroke-opacity:1"
       id="g5001"
       transform="matrix(0.38191782,-0.32421645,0.32421645,0.38191782,9.965379,96.5728)"
       inkscape:transform-center-x="-11.555918"
       inkscape:transform-center-y="-13.034111">
      <path
         style="fill:#e6e6e6;fill-opacity:1;stroke:#000000;stroke-width:0.30000001;stroke-miterlimit:1;stroke-dasharray:none;stroke-opacity:1"
         d="m 89.610746,76.337845 c 0.05384,-0.04839 1.338975,-0.521305 2.855844,-1.050909 l 2.757943,-0.962917 0.134498,0.639725 c 0.336571,1.600858 0.599894,1.462094 -2.774512,1.462094 -1.689421,0 -3.027619,-0.0396 -2.973773,-0.08799 z"
         id="path5003"
         inkscape:connector-curvature="0" />
      <path
         style="fill:#e6e6e6;fill-opacity:1;stroke:#000000;stroke-width:0.30000001;stroke-miterlimit:1;stroke-dasharray:none;stroke-opacity:1"
         d="m 96.083042,75.324577 c -0.176154,-1.285182 -0.207043,-1.255435 2.121023,-2.042557 l 1.681509,-0.56852 0.256936,1.020365 c 0.14131,0.561201 0.25693,1.396477 0.25693,1.856169 l 0,0.835804 -2.082729,0 -2.082724,0 -0.150945,-1.101261 z"
         id="path5005"
         inkscape:connector-curvature="0" />
      <path
         style="fill:#e6e6e6;fill-opacity:1;stroke:#000000;stroke-width:0.30000001;stroke-miterlimit:1;stroke-dasharray:none;stroke-opacity:1"
         d="m 101.33929,75.654674 c 0,-0.42414 -0.14185,-1.317988 -0.31521,-1.98633 -0.35964,-1.386421 -0.56909,-1.174814 2.06419,-2.08542 0.89733,-0.310302 1.70239,-0.484218 1.78902,-0.386481 0.23753,0.26799 0.64122,2.110053 0.8242,3.76088 l 0.16278,1.468515 -2.26249,0 -2.26249,0 0,-0.771164 z"
         id="path5007"
         inkscape:connector-curvature="0" />
      <path
         style="fill:#e6e6e6;fill-opacity:1;stroke:#000000;stroke-width:0.30000001;stroke-miterlimit:1;stroke-dasharray:none;stroke-opacity:1"
         d="m 106.87758,74.957323 c -0.0888,-0.807683 -0.32096,-2.092344 -0.51585,-2.854802 -0.29114,-1.139051 -0.29918,-1.421241 -0.0451,-1.582284 0.38449,-0.243671 4.44892,-1.613196 4.78758,-1.613196 0.29348,0 0.95634,2.501254 1.2765,4.816729 0.40947,2.961326 0.65437,2.702068 -2.55247,2.702068 l -2.7892,0 -0.1615,-1.468515 z"
         id="path5009"
         inkscape:connector-curvature="0" />
      <path
         style="fill:#e6e6e6;fill-opacity:1;stroke:#000000;stroke-width:0.30000001;stroke-miterlimit:1;stroke-dasharray:none;stroke-opacity:1"
         d="m 113.94631,74.470802 c -0.0827,-1.07527 -0.39334,-2.919167 -0.69042,-4.097549 l -0.54014,-2.142512 2.94664,-1.041322 c 2.04765,-0.723628 2.9946,-0.959762 3.10386,-0.773987 0.5746,0.977014 1.60499,6.565126 1.60499,8.70438 l 0,1.306026 -3.13733,0 -3.13733,0 -0.15027,-1.955036 z"
         id="path5011"
         inkscape:connector-curvature="0" />
      <path
         style="fill:#e6e6e6;fill-opacity:1;stroke:#000000;stroke-width:0.30000001;stroke-miterlimit:1;stroke-dasharray:none;stroke-opacity:1"
         d="m 122.25094,74.811879 c 0,-1.854241 -0.50484,-5.012127 -1.20089,-7.511827 -0.2641,-0.948459 -0.44557,-1.757217 -0.40327,-1.79724 0.0423,-0.04002 1.453,-0.55302 3.13491,-1.139992 1.6819,-0.586972 3.23442,-1.134921 3.45004,-1.217664 0.31933,-0.122538 0.47988,0.14729 0.86554,1.454687 0.83564,2.832786 1.47264,6.467573 1.60927,9.182668 l 0.13303,2.643327 -3.79432,0 -3.79431,0 0,-1.613959 z"
         id="path5013"
         inkscape:connector-curvature="0" />
      <path
         style="fill:#e6e6e6;fill-opacity:1;stroke:#000000;stroke-width:0.30000001;stroke-miterlimit:1;stroke-dasharray:none;stroke-opacity:1"
         d="m 132.26204,75.192285 c -0.0694,-0.678454 -0.18894,-2.026551 -0.26574,-2.99577 -0.16335,-2.061561 -0.87274,-5.746188 -1.57241,-8.167225 -0.27112,-0.938168 -0.44992,-1.746806 -0.39733,-1.796975 0.29332,-0.279812 7.63329,-2.679938 7.76629,-2.53953 0.27753,0.292982 1.33698,4.072766 1.82533,6.512188 0.49599,2.477536 0.85633,5.374083 1.04501,8.399906 l 0.11354,1.820959 -4.1943,0 -4.19429,0 -0.1261,-1.233553 z"
         id="path5015"
         inkscape:connector-curvature="0" />
      <path
         style="fill:#e6e6e6;fill-opacity:1;stroke:#000000;stroke-width:0.30000001;stroke-miterlimit:1;stroke-dasharray:none;stroke-opacity:1"
         d="m 143.63252,75.073364 c 0,-3.45415 -1.07425,-10.061589 -2.31354,-14.230029 -0.37364,-1.256748 -0.59979,-2.33416 -0.50257,-2.394248 0.0972,-0.06009 1.6701,-0.625714 3.49527,-1.256945 l 3.3185,-1.147693 0.5738,1.90827 c 1.67102,5.557255 2.37141,9.616748 2.83246,16.417198 l 0.13939,2.055921 -3.77166,0 -3.77165,0 0,-1.352474 z"
         id="path5017"
         inkscape:connector-curvature="0" />
    </g>
  </g>
  <g
     inkscape:groupmode="layer"
     id="layer5"
     inkscape:label="aux"
     style="display:none">
    <g
       transform="matrix(14.579311,0,0,14.579311,-22.285313,-322.43524)"
       id="g4630"
       style="fill:#ffffff;stroke:#000000;stroke-opacity:1">
      <path
         style="fill:#ffffff;fill-opacity:1;stroke:#000000;stroke-width:0.22268943;stroke-miterlimit:1;stroke-dasharray:none;stroke-opacity:1"
         d="m 12.009166,27.385927 c 0.11054,2.911298 -3.0700802,5.251232 -5.8160122,4.288817 C 3.3810776,30.91945 2.0805903,27.190812 3.81464,24.851063 c 1.5526288,-2.464248 5.4987563,-2.603992 7.22181,-0.255745 0.62659,0.785451 0.975215,1.785989 0.972716,2.790609 z"
         id="circle4632"
         inkscape:connector-curvature="0" />
      <path
         style="fill:#ffffff;fill-opacity:1;stroke:#000000;stroke-width:0.18656099;stroke-miterlimit:1;stroke-dasharray:none;stroke-opacity:1"
         d="m 11.28083,27.385927 c 0.09261,2.438977 -2.5719987,4.399287 -4.8724382,3.593011 -2.3558527,-0.632757 -3.4453526,-3.756471 -1.9926303,-5.716625 1.3007346,-2.064456 4.6066532,-2.181528 6.0501635,-0.214254 0.524933,0.658021 0.816999,1.496235 0.814905,2.337868 z"
         id="circle4634"
         inkscape:connector-curvature="0" />
      <path
         style="fill:#ffffff;fill-opacity:1;stroke:#000000;stroke-width:0.14879705;stroke-miterlimit:1;stroke-dasharray:none;stroke-opacity:1"
         d="m 10.519529,27.385927 c 0.07386,1.945278 -2.0513738,3.508781 -3.8861573,2.865712 -1.8789799,-0.504674 -2.7479427,-2.996084 -1.5892811,-4.559463 1.0374392,-1.646568 3.6741722,-1.739942 4.8254863,-0.170885 0.4186761,0.524825 0.6516221,1.193367 0.6499521,1.864636 z"
         id="circle4636"
         inkscape:connector-curvature="0" />
      <path
         style="fill:#ffffff;fill-opacity:1;stroke:#000000;stroke-width:0.02783618;stroke-miterlimit:1;stroke-dasharray:none;stroke-opacity:1"
         d="m 8.0810059,27.385927 c 0.026288,0.484259 -0.6451402,0.756916 -0.9637213,0.390968 -0.3504714,-0.324086 -0.074056,-0.977703 0.4025556,-0.952133 0.3020066,-0.006 0.5671264,0.258971 0.5611657,0.561165 z"
         id="circle4638"
         inkscape:connector-curvature="0" />
      <path
         style="fill:#ffffff;fill-opacity:1;stroke:#000000;stroke-width:0.11592892;stroke-miterlimit:1;stroke-dasharray:none;stroke-opacity:1"
         d="M 9.8569212,27.385927 C 9.914467,28.901509 8.2586799,30.119646 6.8291856,29.618626 5.3652575,29.22543 4.6882417,27.284353 5.5909641,26.066312 6.3992412,24.783458 8.4535408,24.71071 9.3505386,25.933174 c 0.3261941,0.408895 0.5076839,0.929762 0.5063826,1.452753 z"
         id="circle4640"
         inkscape:connector-curvature="0" />
      <path
         style="fill:#ffffff;fill-opacity:1;stroke:#000000;stroke-width:0.08842371;stroke-miterlimit:1;stroke-dasharray:none;stroke-opacity:1"
         d="m 9.3024244,27.385927 c 0.043893,1.155994 -1.2190419,2.085116 -2.3093738,1.702968 -1.116596,-0.299906 -1.6329827,-1.780442 -0.9444406,-2.709491 0.616505,-0.978483 2.1834006,-1.033971 2.8675764,-0.101549 0.2488011,0.311881 0.3872306,0.709166 0.386238,1.108072 z"
         id="circle4642"
         inkscape:connector-curvature="0" />
      <path
         style="fill:#ffffff;fill-opacity:1;stroke:#000000;stroke-width:0.06478238;stroke-miterlimit:1;stroke-dasharray:none;stroke-opacity:1"
         d="m 8.8258257,27.385927 c 0.032157,0.846923 -0.8931141,1.527631 -1.6919305,1.247656 -0.8180585,-0.219722 -1.196382,-1.304416 -0.6919313,-1.985071 0.4516738,-0.716872 1.599638,-0.757525 2.1008899,-0.0744 0.1822807,0.228494 0.2836991,0.51956 0.2829719,0.811813 z"
         id="circle4644"
         inkscape:connector-curvature="0" />
      <path
         style="fill:#ffffff;fill-opacity:1;stroke:#000000;stroke-width:0.04632954;stroke-miterlimit:1;stroke-dasharray:none;stroke-opacity:1"
         d="m 8.4538239,27.385927 c 0.030956,0.681631 -0.7987111,1.173165 -1.3817593,0.819648 -0.6130544,-0.29965 -0.6471802,-1.263303 -0.056858,-1.605568 0.5938331,-0.406038 1.4593264,0.06471 1.4386172,0.78592 z"
         id="circle4646"
         inkscape:connector-curvature="0" />
      <path
         style="fill:#ffffff;fill-opacity:1;stroke:#000000;stroke-width:0.02920101;stroke-miterlimit:1;stroke-dasharray:none;stroke-opacity:1"
         d="m 8.1085206,27.385927 c 0.024888,0.480868 -0.6161639,0.779158 -0.9679187,0.450248 -0.3840627,-0.290783 -0.1988825,-0.973137 0.279182,-1.030363 0.3483433,-0.06883 0.6974613,0.224825 0.6887367,0.580115 z"
         id="circle4648"
         inkscape:connector-curvature="0" />
    </g>
    <path
       style="fill:none;fill-rule:evenodd;stroke:#000000;stroke-width:0.62185436px;stroke-linecap:butt;stroke-linejoin:miter;stroke-opacity:1"
       d="m 86.76137,76.832707 c 22.32143,0 44.64285,0 66.96428,0"
       id="path4686"
       inkscape:connector-curvature="0" />
    <path
       style="fill:none;fill-rule:evenodd;stroke:#000000;stroke-width:0.62185436px;stroke-linecap:butt;stroke-linejoin:miter;stroke-opacity:1"
       d="M 86.76251,76.831725 C 107.83645,69.474073 128.91039,62.11642 149.98433,54.758768"
       id="path4692"
       inkscape:connector-curvature="0" />
    <g
       id="g4760"
       style="stroke:#000000;stroke-width:1;stroke-miterlimit:1;stroke-dasharray:none;stroke-opacity:1">
      <path
         style="fill:#e6e6e6;fill-opacity:1;stroke:#000000;stroke-width:1;stroke-miterlimit:1;stroke-dasharray:none;stroke-opacity:1"
         d="m 89.610746,76.337845 c 1.956425,-1.945959 9.109466,-2.118499 4.075619,0.09083 -1.358042,-0.02257 -2.721516,0.04159 -4.075619,-0.09083 z"
         id="path4712"
         inkscape:connector-curvature="0" />
      <path
         style="fill:#e6e6e6;fill-opacity:1;stroke:#000000;stroke-width:1;stroke-miterlimit:1;stroke-dasharray:none;stroke-opacity:1"
         d="m 96.083042,75.324577 c 0.521902,-4.868344 7.065828,-1.216969 3.557535,1.101261 -1.170207,-0.359859 -3.901223,0.938954 -3.557535,-1.101261 z"
         id="path4714"
         inkscape:connector-curvature="0" />
      <path
         style="fill:#e6e6e6;fill-opacity:1;stroke:#000000;stroke-width:1;stroke-miterlimit:1;stroke-dasharray:none;stroke-opacity:1"
         d="m 101.33929,75.654674 c -2.566775,-7.899942 8.37932,-1.940759 3.38669,0.771164 -0.89978,-0.32445 -3.79555,0.75716 -3.38669,-0.771164 z"
         id="path4716"
         inkscape:connector-curvature="0" />
      <path
         style="fill:#e6e6e6;fill-opacity:1;stroke:#000000;stroke-width:1;stroke-miterlimit:1;stroke-dasharray:none;stroke-opacity:1"
         d="m 106.87758,74.957323 c -3.85044,-5.838488 7.1591,-8.442514 5.50313,-1.233553 2.5638,3.300933 -6.30574,3.955049 -5.50313,1.233553 z"
         id="path4718"
         inkscape:connector-curvature="0" />
      <path
         style="fill:#e6e6e6;fill-opacity:1;stroke:#000000;stroke-width:1;stroke-miterlimit:1;stroke-dasharray:none;stroke-opacity:1"
         d="m 113.94631,74.470802 c -0.0359,-3.030948 -2.95984,-7.101738 1.71608,-7.281383 4.66178,-3.761327 6.29082,8.645186 3.57056,9.236419 -1.72706,-0.530163 -5.6822,1.345597 -5.25268,-1.513262 l -0.0291,-0.378315 -0.005,-0.06346 0,0 z"
         id="path4720"
         inkscape:connector-curvature="0" />
      <path
         style="fill:#e6e6e6;fill-opacity:1;stroke:#000000;stroke-width:1;stroke-miterlimit:1;stroke-dasharray:none;stroke-opacity:1"
         d="m 122.25094,74.811879 c -0.0755,-5.014918 -4.08631,-11.139647 3.80562,-11.246977 4.2091,0.236434 3.0972,8.939207 3.78301,12.860936 -2.52954,0 -5.05909,0 -7.58863,0 0,-0.537986 0,-1.075973 0,-1.613959 z"
         id="path4722"
         inkscape:connector-curvature="0" />
      <path
         style="fill:#e6e6e6;fill-opacity:1;stroke:#000000;stroke-width:1;stroke-miterlimit:1;stroke-dasharray:none;stroke-opacity:1"
         d="m 132.26204,75.192285 c 0.88404,-5.639966 -6.22326,-14.587761 3.0924,-14.831458 5.78869,-0.882394 4.19449,10.511417 5.35597,15.001444 0.0946,2.211592 -3.91385,0.568061 -5.64571,1.063567 -1.19676,-0.291162 -3.25307,0.869807 -2.80266,-1.233553 z"
         id="path4724"
         inkscape:connector-curvature="0" />
      <path
         style="fill:#e6e6e6;fill-opacity:1;stroke:#000000;stroke-width:1;stroke-miterlimit:1;stroke-dasharray:none;stroke-opacity:1"
         d="m 143.63252,75.073364 c 0.83536,-5.581113 -3.63726,-12.881593 -1.71646,-17.038572 2.6688,-0.643594 6.6773,-3.817369 6.59004,0.943395 1.72719,5.656995 2.33616,11.565761 2.66973,17.447651 -2.51444,0 -5.02887,0 -7.54331,0 0,-0.450825 0,-0.901649 0,-1.352474 z"
         id="path4726"
         inkscape:connector-curvature="0" />
    </g>
  </g>
</svg>
