<?xml version="1.0" encoding="UTF-8" standalone="no"?>
<!-- Created with Inkscape (http://www.inkscape.org/) -->

<svg
   xmlns:dc="http://purl.org/dc/elements/1.1/"
   xmlns:cc="http://creativecommons.org/ns#"
   xmlns:rdf="http://www.w3.org/1999/02/22-rdf-syntax-ns#"
   xmlns:svg="http://www.w3.org/2000/svg"
   xmlns="http://www.w3.org/2000/svg"
   xmlns:sodipodi="http://sodipodi.sourceforge.net/DTD/sodipodi-0.dtd"
   xmlns:inkscape="http://www.inkscape.org/namespaces/inkscape"
   width="300"
   height="125"
   viewBox="0 0 300.00001 125"
   id="svg4735"
   version="1.1"
   inkscape:version="0.91 r13725"
   sodipodi:docname="hands_white_finger_numbers.svg"
   inkscape:export-filename="/home/leo/leo/music/pygame_mc/assets/images/controls/svgs/hands_white_finger_numbers.png"
   inkscape:export-xdpi="359.99997"
   inkscape:export-ydpi="359.99997">
  <defs
     id="defs4737" />
  <sodipodi:namedview
     id="base"
     pagecolor="#ffffff"
     bordercolor="#666666"
     borderopacity="1.0"
     inkscape:pageopacity="0.0"
     inkscape:pageshadow="2"
     inkscape:zoom="2.0623948"
     inkscape:cx="148.84588"
     inkscape:cy="94.64424"
     inkscape:document-units="px"
     inkscape:current-layer="layer1"
     showgrid="false"
     units="px"
     inkscape:window-width="1366"
     inkscape:window-height="588"
     inkscape:window-x="0"
     inkscape:window-y="24"
     inkscape:window-maximized="1" />
  <metadata
     id="metadata4740">
    <rdf:RDF>
      <cc:Work
         rdf:about="">
        <dc:format>image/svg+xml</dc:format>
        <dc:type
           rdf:resource="http://purl.org/dc/dcmitype/StillImage" />
        <dc:title></dc:title>
      </cc:Work>
    </rdf:RDF>
  </metadata>
  <g
     inkscape:label="Layer 1"
     inkscape:groupmode="layer"
     id="layer1"
     transform="translate(0,-927.36221)">
    <g
       id="g5398"
       transform="translate(-6.0000002,0)">
      <path
         inkscape:connector-curvature="0"
         id="path3394"
         d="m 82.449164,927.36379 c 1.902606,-0.0346 3.858737,0.49752 5.190394,1.69734 0.457253,0.41199 0.854923,0.93811 1.125488,1.77679 0.270563,0.83869 0.44562,1.99058 0.570479,3.79385 0.249717,3.60653 0.288889,9.82891 0.295875,21.19165 0.0042,6.8045 0.103147,13.13964 0.259132,17.86089 0.07799,2.36063 0.169557,4.31865 0.270737,5.72371 0.05058,0.70253 0.103707,1.26776 0.15664,1.66828 0.02647,0.20026 0.0538,0.35968 0.07736,0.46696 0.02354,0.10729 0.06672,0.17908 0.01934,0.10464 0.303331,0.47653 1.380438,0.91033 2.200696,0.75373 0.368799,-0.0704 0.494206,-0.1059 0.696177,-0.46697 0.201968,-0.36106 0.40741,-1.11503 0.56274,-2.46658 0.310658,-2.70309 0.471242,-7.77154 0.703912,-17.16335 0.137849,-5.56425 0.354258,-10.80752 0.593686,-14.7801 0.119713,-1.98629 0.245084,-3.65457 0.369361,-4.89053 0.06214,-0.61798 0.12341,-1.12742 0.185648,-1.52103 0.06224,-0.3936 0.09549,-0.63399 0.220456,-0.88742 0.675956,-1.37079 2.234136,-2.34429 3.923735,-2.87154 1.6896,-0.52725 3.54274,-0.61595 4.91579,0.10269 1.0886,0.56977 2.00099,1.06957 2.68802,2.04224 0.68703,0.97268 1.10872,2.34594 1.39042,4.62508 0.56339,4.55829 0.57048,12.84793 0.57048,29.24824 0,8.62762 0.0839,16.46629 0.21852,22.14108 0.0673,2.8374 0.14765,5.13526 0.23593,6.71386 0.0386,0.6897 0.0796,1.1771 0.1199,1.5714 0.32446,-0.3435 0.75976,-0.8505 1.26859,-1.4784 1.02194,-1.2612 2.33821,-3.00547 3.69361,-4.91769 4.08486,-5.76298 7.09381,-9.12299 9.95921,-10.37978 1.4327,-0.6284 2.84893,-0.69675 4.22348,-0.2267 1.37454,0.47004 2.7041,1.44534 4.11325,2.84829 1.26876,1.26317 2.04643,2.1837 2.44049,3.18737 0.39405,1.00366 0.35297,2.03011 0.087,3.354 -0.14312,0.71247 -0.64271,1.75399 -1.4291,3.22031 -0.78639,1.4663 -1.86113,3.3079 -3.1386,5.404 -2.55495,4.1921 -5.92544,9.4001 -9.42934,14.6096 -3.5039,5.2094 -7.14034,10.419 -10.22609,14.6134 -3.08574,4.1945 -5.57325,7.3399 -6.96371,8.5585 -4.834534,4.2368 -9.608318,6.775 -16.342775,8.696 -2.916954,0.832 -8.882307,1.1967 -16.004356,1.0385 -9.86922,-0.2192 -12.294329,-0.6258 -17.044756,-2.8424 -9.06388,-4.2295 -14.975377,-11.487 -17.626837,-21.6218 -0.255806,-0.9778 -0.454127,-2.7702 -0.638164,-5.2607 -0.184033,-2.4904 -0.341938,-5.6549 -0.473792,-9.2617 -0.263689,-7.2138 -0.422712,-16.19869 -0.466049,-25.08629 -0.04337,-8.8876 0.02901,-17.67613 0.224321,-24.49528 0.09763,-3.40957 0.225262,-6.32691 0.386771,-8.52355 0.08079,-1.09832 0.169964,-2.0162 0.268797,-2.73203 0.09883,-0.71583 0.186316,-1.20523 0.353894,-1.5714 2.234977,-4.88364 9.509558,-5.82057 12.304945,-1.51134 0.17123,0.26396 0.184776,0.46285 0.249464,0.80992 0.06468,0.34708 0.127909,0.79746 0.191448,1.34471 0.127079,1.09449 0.255779,2.57858 0.377097,4.35381 0.242636,3.55046 0.461121,8.26184 0.597552,13.28426 0.228911,8.42694 0.389696,12.99982 0.700047,15.44663 0.155174,1.22341 0.359955,1.90494 0.556942,2.23213 0.196986,0.3272 0.330115,0.3735 0.698111,0.44371 0.820245,0.15651 1.897367,-0.27719 2.200696,-0.75373 -0.04633,0.0728 -0.0022,0.003 0.02127,-0.10269 0.02349,-0.10605 0.04897,-0.26517 0.07542,-0.46309 0.0529,-0.39584 0.106044,-0.95314 0.156641,-1.64697 0.101194,-1.38764 0.194654,-3.32035 0.27267,-5.65007 0.156034,-4.65945 0.255176,-10.91176 0.259133,-17.62257 0.0072,-11.54758 0.03536,-17.67429 0.301677,-21.19359 0.133156,-1.75965 0.322517,-2.87461 0.622692,-3.70471 0.300176,-0.83011 0.728924,-1.35931 1.218312,-1.84655 2.797303,-2.78498 7.621698,-2.73988 10.224146,0.12013 0.459109,0.50455 0.848498,1.07929 1.133222,1.93374 0.284726,0.85445 0.479915,1.98486 0.630428,3.68534 0.301027,3.40094 0.41637,9.10564 0.553075,19.42648 0.124134,9.37162 0.26252,15.05461 0.516332,18.42475 0.126907,1.68506 0.286259,2.79459 0.469921,3.46444 0.18366,0.66986 0.358699,0.81727 0.440912,0.84868 0.525263,0.20067 1.766967,-0.0347 2.430821,-0.58322 0.184145,-0.15216 0.397629,-0.48882 0.582082,-1.30208 0.184454,-0.81325 0.330582,-2.06794 0.437045,-3.9411 0.212926,-3.74631 0.274604,-9.9745 0.274604,-20.3081 0,-10.80801 0.04976,-17.04171 0.282338,-20.80219 0.116289,-1.88024 0.276018,-3.14403 0.510531,-4.06898 0.234513,-0.92495 0.563638,-1.52789 0.976583,-1.98218 1.15444,-1.27002 3.034456,-1.86815 4.937061,-1.90273 z m 0.01741,0.99205 c -1.70057,0.0309 -3.334271,0.60092 -4.22348,1.57916 -0.304196,0.33465 -0.538977,0.73951 -0.746457,1.55784 -0.20748,0.81833 -0.368993,2.03417 -0.483457,3.88491 -0.228927,3.70146 -0.280404,9.93727 -0.280404,20.74212 0,10.33746 -0.06069,16.56663 -0.276538,20.36429 -0.107922,1.89883 -0.252772,3.18909 -0.460251,4.10386 -0.207479,0.91478 -0.484396,1.49134 -0.916634,1.84848 -0.957475,0.79114 -2.34675,1.15148 -3.413206,0.74405 -0.516827,-0.19746 -0.82686,-0.7184 -1.044266,-1.51134 -0.217408,-0.79294 -0.373772,-1.93921 -0.502796,-3.6524 -0.258048,-3.42638 -0.394075,-9.11268 -0.518265,-18.48868 -0.136671,-10.3182 -0.254876,-16.0256 -0.549208,-19.35092 -0.147165,-1.66266 -0.33991,-2.72609 -0.584015,-3.45864 -0.244106,-0.73255 -0.524993,-1.13812 -0.926304,-1.57915 -2.188464,-2.40506 -6.40888,-2.45899 -8.793114,-0.0853 -0.447812,0.44585 -0.736528,0.79704 -0.984317,1.48228 -0.247791,0.68523 -0.436552,1.72246 -0.566612,3.44119 -0.26012,3.43747 -0.292569,9.57393 -0.299743,21.11996 -0.004,6.72023 -0.104509,12.97848 -0.261067,17.65358 -0.07828,2.33755 -0.169805,4.27825 -0.27267,5.68882 -0.05144,0.70529 -0.104923,1.27665 -0.162441,1.70704 -0.02876,0.21519 -0.05946,0.39383 -0.09282,0.54447 -0.03337,0.15064 -0.04629,0.25814 -0.150839,0.4224 -0.628201,0.98692 -1.992366,1.43007 -3.221756,1.1955 -0.492929,-0.0941 -1.026243,-0.34814 -1.361415,-0.90486 -0.335172,-0.55672 -0.528311,-1.34192 -0.690376,-2.61965 -0.324132,-2.55546 -0.478795,-7.11769 -0.707781,-15.54739 -0.136107,-5.01048 -0.354295,-9.71036 -0.595619,-13.24164 -0.120662,-1.76563 -0.247344,-3.23974 -0.371295,-4.3073 -0.06197,-0.53379 -0.124165,-0.96776 -0.18178,-1.27689 -0.05761,-0.30913 -0.162153,-0.53747 -0.10636,-0.45146 -2.322227,-3.57984 -8.661475,-2.79403 -10.574169,1.38539 -0.05829,0.12736 -0.180519,0.61291 -0.274603,1.29432 -0.09408,0.68141 -0.181265,1.58265 -0.261067,2.66809 -0.159606,2.17088 -0.287428,5.07818 -0.384832,8.47899 -0.194808,6.80162 -0.267625,15.58131 -0.224324,24.4604 0.0433,8.87909 0.200995,17.85904 0.464119,25.05714 0.131561,3.5991 0.291227,6.7526 0.473787,9.2231 0.182561,2.4704 0.399751,4.2819 0.609156,5.0823 2.589856,9.8994 8.263212,16.858 17.085366,20.9747 4.679254,2.1834 6.802873,2.5307 16.650255,2.7494 7.074084,0.1571 13.070438,-0.2473 15.708481,-0.9998 6.633191,-1.8921 11.223834,-4.3348 15.963743,-8.4887 1.1823,-1.0361 3.74486,-4.2232 6.81868,-8.4014 3.07381,-4.1782 6.70541,-9.3787 10.20287,-14.5786 3.49745,-5.1999 6.86105,-10.4 9.4042,-14.5728 1.27157,-2.0864 2.33938,-3.9177 3.11153,-5.35748 0.77215,-1.43977 1.24868,-2.53804 1.33047,-2.94517 0.25121,-1.25049 0.26722,-2.02178 -0.0367,-2.79597 -0.30396,-0.77419 -0.97845,-1.61216 -2.2181,-2.84635 -1.3498,-1.34386 -2.57609,-2.2152 -3.73615,-2.6119 -1.16007,-0.3967 -2.25845,-0.35065 -3.5041,0.1957 -2.49129,1.0927 -5.49405,4.32539 -9.54924,10.04651 -1.36604,1.92722 -2.69112,3.68316 -3.73229,4.96806 -0.52058,0.6424 -0.96932,1.1666 -1.32467,1.5423 -0.17767,0.1879 -0.33055,0.3383 -0.46992,0.4553 -0.0697,0.058 -0.13513,0.1092 -0.21079,0.1551 -0.0757,0.046 -0.15413,0.1002 -0.33068,0.1104 -0.18332,0.01 -0.33295,-0.088 -0.4003,-0.1569 -0.0674,-0.069 -0.0917,-0.1197 -0.11217,-0.1628 -0.041,-0.086 -0.0568,-0.1496 -0.0735,-0.2209 -0.0335,-0.1427 -0.0579,-0.3108 -0.0832,-0.529 -0.0505,-0.4363 -0.0965,-1.0588 -0.14117,-1.8581 -0.0894,-1.5987 -0.17043,-3.90149 -0.23786,-6.74485 -0.13486,-5.68672 -0.21852,-13.53029 -0.21852,-22.16433 0,-16.3998 -0.0174,-24.71424 -0.56274,-29.12617 -0.27265,-2.20596 -0.67497,-3.40904 -1.21638,-4.17555 -0.54141,-0.76651 -1.25945,-1.16965 -2.338,-1.73416 -0.99795,-0.52232 -2.65129,-0.50678 -4.16353,-0.0349 -1.512236,0.4719 -2.851581,1.39358 -3.330049,2.36388 0.01257,-0.0255 -0.07223,0.23999 -0.129566,0.6026 -0.05734,0.36261 -0.118842,0.86007 -0.179846,1.46677 -0.122009,1.2134 -0.246274,2.87175 -0.365493,4.84984 -0.23844,3.95618 -0.454161,9.19137 -0.591752,14.74522 -0.232728,9.39413 -0.389505,14.44754 -0.711649,17.25055 -0.16107,1.40151 -0.351722,2.24702 -0.682641,2.8386 -0.330917,0.59159 -0.876011,0.86229 -1.373016,0.95718 -1.229398,0.23472 -2.591603,-0.20857 -3.219824,-1.1955 -0.105608,-0.16592 -0.119464,-0.2726 -0.152772,-0.42434 -0.03331,-0.15174 -0.06216,-0.33288 -0.09089,-0.55028 -0.05747,-0.43481 -0.111036,-1.01255 -0.162442,-1.72641 -0.102815,-1.42774 -0.196358,-3.39411 -0.274606,-5.76246 -0.156497,-4.7367 -0.254958,-11.08007 -0.259132,-17.89384 -0.007,-11.36056 -0.0492,-17.58719 -0.293942,-21.12189 -0.122373,-1.76735 -0.298225,-2.85934 -0.524068,-3.55939 -0.225842,-0.70006 -0.470719,-1.0074 -0.845083,-1.34471 -1.073868,-0.96755 -2.811049,-1.47249 -4.511619,-1.44158 z"
         style="color:#000000;font-style:normal;font-variant:normal;font-weight:normal;font-stretch:normal;font-size:medium;line-height:normal;font-family:sans-serif;text-indent:0;text-align:start;text-decoration:none;text-decoration-line:none;text-decoration-style:solid;text-decoration-color:#000000;letter-spacing:normal;word-spacing:normal;text-transform:none;direction:ltr;block-progression:tb;writing-mode:lr-tb;baseline-shift:baseline;text-anchor:start;white-space:normal;clip-rule:nonzero;display:inline;overflow:visible;visibility:visible;opacity:1;isolation:auto;mix-blend-mode:normal;color-interpolation:sRGB;color-interpolation-filters:linearRGB;solid-color:#000000;solid-opacity:1;fill-opacity:1;fill-rule:nonzero;stroke:none;stroke-width:1;stroke-linecap:butt;stroke-linejoin:miter;stroke-miterlimit:4;stroke-dasharray:none;stroke-dashoffset:0;stroke-opacity:1;color-rendering:auto;image-rendering:auto;shape-rendering:auto;text-rendering:auto;enable-background:accumulate" />
      <text
         sodipodi:linespacing="125%"
         id="text3415"
         y="999.40125"
         x="125.77512"
         style="font-style:normal;font-variant:normal;font-weight:normal;font-stretch:normal;font-size:40px;line-height:125%;font-family:'STIX Math';-inkscape-font-specification:'STIX Math';letter-spacing:0px;word-spacing:0px;fill:#000000;fill-opacity:1;stroke:none;stroke-width:1px;stroke-linecap:butt;stroke-linejoin:miter;stroke-opacity:1"
         xml:space="preserve"><tspan
           style="font-style:normal;font-variant:normal;font-weight:normal;font-stretch:normal;font-size:12.5px;font-family:'STIX Math';-inkscape-font-specification:'STIX Math'"
           y="999.40125"
           x="125.77512"
           id="tspan3417"
           sodipodi:role="line">1</tspan></text>
      <text
         sodipodi:linespacing="125%"
         id="text3415-1"
         y="949.15356"
         x="98.954475"
         style="font-style:normal;font-variant:normal;font-weight:normal;font-stretch:normal;font-size:40px;line-height:125%;font-family:'STIX Math';-inkscape-font-specification:'STIX Math';letter-spacing:0px;word-spacing:0px;fill:#000000;fill-opacity:1;stroke:none;stroke-width:1px;stroke-linecap:butt;stroke-linejoin:miter;stroke-opacity:1"
         xml:space="preserve"><tspan
           style="font-style:normal;font-variant:normal;font-weight:normal;font-stretch:normal;font-size:12.5px;font-family:'STIX Math';-inkscape-font-specification:'STIX Math'"
           y="949.15356"
           x="98.954475"
           id="tspan3417-3"
           sodipodi:role="line">2</tspan></text>
      <text
         sodipodi:linespacing="125%"
         id="text3415-1-9"
         y="939.1441"
         x="80.385292"
         style="font-style:normal;font-variant:normal;font-weight:normal;font-stretch:normal;font-size:40px;line-height:125%;font-family:'STIX Math';-inkscape-font-specification:'STIX Math';letter-spacing:0px;word-spacing:0px;fill:#000000;fill-opacity:1;stroke:none;stroke-width:1px;stroke-linecap:butt;stroke-linejoin:miter;stroke-opacity:1"
         xml:space="preserve"><tspan
           style="font-style:normal;font-variant:normal;font-weight:normal;font-stretch:normal;font-size:12.5px;font-family:'STIX Math';-inkscape-font-specification:'STIX Math'"
           y="939.1441"
           x="80.385292"
           id="tspan3417-3-3"
           sodipodi:role="line">3</tspan></text>
      <text
         sodipodi:linespacing="125%"
         id="text3415-1-9-2"
         y="945.1441"
         x="60.222794"
         style="font-style:normal;font-variant:normal;font-weight:normal;font-stretch:normal;font-size:40px;line-height:125%;font-family:'STIX Math';-inkscape-font-specification:'STIX Math';letter-spacing:0px;word-spacing:0px;fill:#000000;fill-opacity:1;stroke:none;stroke-width:1px;stroke-linecap:butt;stroke-linejoin:miter;stroke-opacity:1"
         xml:space="preserve"><tspan
           style="font-style:normal;font-variant:normal;font-weight:normal;font-stretch:normal;font-size:12.5px;font-family:'STIX Math';-inkscape-font-specification:'STIX Math'"
           y="945.1441"
           x="60.222794"
           id="tspan3417-3-3-0"
           sodipodi:role="line">4</tspan></text>
      <text
         sodipodi:linespacing="125%"
         id="text3415-1-9-9"
         y="959.36823"
         x="40.641247"
         style="font-style:normal;font-variant:normal;font-weight:normal;font-stretch:normal;font-size:40px;line-height:125%;font-family:'STIX Math';-inkscape-font-specification:'STIX Math';letter-spacing:0px;word-spacing:0px;fill:#000000;fill-opacity:1;stroke:none;stroke-width:1px;stroke-linecap:butt;stroke-linejoin:miter;stroke-opacity:1"
         xml:space="preserve"><tspan
           style="font-style:normal;font-variant:normal;font-weight:normal;font-stretch:normal;font-size:12.5px;font-family:'STIX Math';-inkscape-font-specification:'STIX Math'"
           y="959.36823"
           x="40.641247"
           id="tspan3417-3-3-2"
           sodipodi:role="line">5</tspan></text>
    </g>
    <g
       id="g5309"
       transform="translate(170,927.36221)">
      <path
         inkscape:connector-curvature="0"
         id="path3394-5"
         d="m 53.550859,0.00157936 c -1.902606,-0.03458564 -3.858737,0.49752192 -5.190394,1.69734724 -0.457253,0.4119861 -0.854923,0.9381064 -1.125488,1.7767893 -0.270563,0.8386829 -0.44562,1.990575 -0.570479,3.7938423 -0.249717,3.6065338 -0.288889,9.8289138 -0.295875,21.1916518 -0.0042,6.804501 -0.103147,13.139644 -0.259132,17.860897 -0.07799,2.360627 -0.169557,4.318648 -0.270737,5.723704 -0.05058,0.702527 -0.103707,1.267759 -0.15664,1.668282 -0.02647,0.200262 -0.0538,0.359683 -0.07736,0.466964 -0.02354,0.107283 -0.06672,0.17908 -0.01934,0.104632 -0.303331,0.47653 -1.380438,0.910334 -2.200696,0.753731 -0.368799,-0.07042 -0.494206,-0.105897 -0.696177,-0.466964 -0.201968,-0.361068 -0.40741,-1.115035 -0.56274,-2.466579 -0.310658,-2.70309 -0.471242,-7.77154 -0.703912,-17.163359 -0.137849,-5.56425 -0.354258,-10.807512 -0.593686,-14.780096 -0.119713,-1.986292 -0.245084,-3.654571 -0.369361,-4.89053 -0.06214,-0.61798 -0.12341,-1.127418 -0.185648,-1.521025 -0.06224,-0.393605 -0.09549,-0.633996 -0.220456,-0.887426 -0.675956,-1.370793 -2.234136,-2.34429 -3.923735,-2.8715394 -1.6896,-0.5272496 -3.542741,-0.6159462 -4.91579,0.1026934 -1.088597,0.569771 -2.000989,1.069568 -2.68802,2.042242 -0.687031,0.972674 -1.108725,2.345933 -1.390422,4.625077 -0.563393,4.55829 -0.57048,12.847933 -0.57048,29.248238 0,8.627622 -0.08394,16.466289 -0.218522,22.141081 -0.06729,2.837396 -0.147646,5.135239 -0.235927,6.713822 -0.03858,0.689776 -0.07959,1.177152 -0.119897,1.571402 -0.324464,-0.343449 -0.759761,-0.850462 -1.268591,-1.478396 -1.021938,-1.26115 -2.33821,-3.005442 -3.693611,-4.917658 -4.084858,-5.762976 -7.093811,-9.122991 -9.959211,-10.379781 -1.4326958,-0.628396 -2.8489282,-0.696746 -4.2234754,-0.226701 -1.3745471,0.470046 -2.7041013,1.445341 -4.113251,2.848288 -1.2687651,1.263175 -2.04643446,2.183707 -2.44049038,3.187371 -0.39405592,1.003663 -0.35297482,2.030117 -0.0870222,3.354004 0.14312226,0.712466 0.6427057,1.753985 1.42909848,3.22031 0.7863928,1.466324 1.8611277,3.307938 3.138602,5.403996 2.5549487,4.192118 5.9254425,9.400117 9.4293425,14.609587 3.5039,5.20947 7.140333,10.419053 10.22608,14.613463 3.085747,4.19441 5.573258,7.33989 6.963713,8.55842 4.834536,4.2368 9.60832,6.77499 16.342777,8.696 2.916954,0.83207 8.882307,1.19672 16.004356,1.03856 9.86922,-0.21918 12.294329,-0.62578 17.044756,-2.84247 9.06388,-4.22947 14.975377,-11.48698 17.626837,-21.6218 0.255806,-0.977777 0.454127,-2.770199 0.638164,-5.260616 0.184033,-2.490416 0.341938,-5.654897 0.473792,-9.26178 0.263689,-7.213767 0.422712,-16.198649 0.466049,-25.08625 0.04337,-8.8876 -0.02901,-17.676135 -0.224321,-24.495277 -0.09763,-3.409572 -0.225262,-6.32691 -0.386771,-8.523551 -0.08079,-1.09832 -0.169964,-2.016199 -0.268797,-2.732031 -0.09883,-0.715833 -0.186316,-1.205229 -0.353894,-1.571404 -2.234977,-4.88364 -9.509558,-5.820572 -12.304945,-1.511336 -0.17123,0.263959 -0.184776,0.462848 -0.249464,0.809922 -0.06468,0.347074 -0.127909,0.797454 -0.191448,1.344702 -0.127079,1.094497 -0.255779,2.57858 -0.377097,4.353812 -0.242636,3.550463 -0.461121,8.261844 -0.597552,13.284261 -0.228911,8.426939 -0.389696,12.999819 -0.700047,15.446634 -0.155174,1.223408 -0.359955,1.904935 -0.556942,2.232128 -0.196986,0.327194 -0.330115,0.373501 -0.698111,0.443713 -0.820245,0.156501 -1.897367,-0.277192 -2.200696,-0.753731 0.04633,0.07279 0.0022,0.0034 -0.02127,-0.102693 -0.02349,-0.106048 -0.04897,-0.26517 -0.07542,-0.463089 -0.0529,-0.395839 -0.106044,-0.953145 -0.156641,-1.646969 C 80.52325,55.618448 80.42979,53.685747 80.351774,51.356021 80.19574,46.696568 80.096598,40.444263 80.092641,33.733449 80.085465,22.185869 80.057277,16.059162 79.790964,12.53986 79.657808,10.780209 79.468447,9.6652502 79.168272,8.8351479 78.868096,8.0050455 78.439348,7.4758384 77.94996,6.9886046 75.152657,4.20362 70.328262,4.2487194 67.725814,7.1087365 67.266705,7.613282 66.877316,8.1880229 66.592592,9.0424723 c -0.284726,0.8544494 -0.479915,1.9848627 -0.630428,3.6853357 -0.301027,3.400948 -0.41637,9.105645 -0.553075,19.426488 -0.124134,9.37162 -0.26252,15.054608 -0.516332,18.424743 -0.126907,1.685068 -0.286259,2.794593 -0.469921,3.464448 -0.18366,0.669856 -0.358699,0.817265 -0.440912,0.848674 -0.525263,0.200674 -1.766967,-0.0347 -2.430821,-0.58322 -0.184145,-0.152154 -0.397629,-0.488818 -0.582082,-1.302075 -0.184454,-0.813258 -0.330582,-2.067946 -0.437045,-3.941101 -0.212926,-3.74631 -0.274604,-9.974504 -0.274604,-20.308101 0,-10.808007 -0.04976,-17.041713 -0.282338,-20.8021915 C 59.858745,6.0752331 59.699016,4.8114407 59.464503,3.8864895 59.22999,2.9615382 58.900865,2.3586048 58.48792,1.9043134 57.33348,0.63429013 55.453464,0.03616508 53.550859,0.00157936 Z m -0.01741,0.99205682 c 1.70057,0.0309131 3.334271,0.60091652 4.22348,1.57915302 0.304196,0.3346547 0.538977,0.7395102 0.746457,1.5578392 0.20748,0.818329 0.368993,2.0341772 0.483457,3.88491 0.228927,3.7014666 0.280404,9.9372746 0.280404,20.7421256 0,10.337462 0.06069,16.566632 0.276538,20.364292 0.107922,1.89883 0.252772,3.189083 0.460251,4.10386 0.207479,0.914776 0.484396,1.491335 0.916634,1.848481 0.957475,0.791131 2.34675,1.151477 3.413206,0.744042 0.516827,-0.197453 0.82686,-0.718401 1.044266,-1.511336 0.217408,-0.792936 0.373772,-1.939207 0.502796,-3.652397 0.258048,-3.426381 0.394075,-9.112688 0.518265,-18.488684 0.136671,-10.318202 0.254876,-16.025601 0.549208,-19.350921 0.147165,-1.66266 0.33991,-2.726086 0.584015,-3.4586358 0.244106,-0.7325502 0.524993,-1.1381259 0.926304,-1.5791529 2.188464,-2.4050606 6.40888,-2.4589896 8.793114,-0.085255 0.447812,0.4458413 0.736528,0.7970369 0.984317,1.4822724 0.247791,0.6852356 0.436552,1.7224673 0.566612,3.4411973 0.26012,3.437461 0.292569,9.573923 0.299743,21.119959 0.004,6.720226 0.104509,12.978475 0.261067,17.653574 0.07828,2.33755 0.169805,4.278257 0.27267,5.688826 0.05144,0.705285 0.104923,1.276649 0.162441,1.707035 0.02876,0.215194 0.05946,0.393827 0.09282,0.54447 0.03337,0.150642 0.04629,0.258145 0.150839,0.422399 0.628201,0.986921 1.992366,1.430069 3.221756,1.195506 0.492929,-0.09405 1.026243,-0.348147 1.361415,-0.904864 0.335172,-0.556719 0.528311,-1.34192 0.690376,-2.619651 0.324132,-2.555461 0.478795,-7.117688 0.707781,-15.54739 0.136107,-5.010476 0.354295,-9.710363 0.595619,-13.241634 0.120662,-1.765635 0.247344,-3.239747 0.371295,-4.307309 0.06197,-0.533781 0.124165,-0.967759 0.18178,-1.276886 0.05761,-0.309127 0.162153,-0.537469 0.10636,-0.451463 2.322227,-3.579837 8.661475,-2.79403 10.574169,1.385391 0.05829,0.127358 0.180519,0.612914 0.274603,1.294325 0.09408,0.681411 0.181265,1.582652 0.261067,2.66809 0.159606,2.170876 0.287428,5.078175 0.384832,8.478986 0.194808,6.801621 0.267625,15.581314 0.224324,24.460401 -0.0433,8.879086 -0.200995,17.859057 -0.464119,25.057185 -0.131561,3.599064 -0.291227,6.752581 -0.473787,9.223028 -0.182561,2.470448 -0.399751,4.281938 -0.609156,5.082355 -2.589856,9.89934 -8.263212,16.85797 -17.085366,20.97464 -4.679254,2.18347 -6.802873,2.53077 -16.650255,2.74946 -7.074084,0.1571 -13.070438,-0.2473 -15.708481,-0.9998 -6.633191,-1.89213 -11.223834,-4.3348 -15.963746,-8.48868 -1.182295,-1.03611 -3.744854,-4.22327 -6.818676,-8.40148 C 22.150331,101.9037 18.518731,96.703204 15.021279,91.50332 11.523827,86.303437 8.1602285,81.10331 5.6170761,76.930548 4.3455,74.844168 3.2776985,73.012823 2.5055477,71.573054 1.7333968,70.133286 1.2568596,69.035014 1.1750743,68.627885 c -0.251208,-1.25049 -0.26721804,-2.021781 0.036743,-2.795972 0.3039609,-0.774192 0.9784515,-1.612164 2.2181002,-2.846351 1.349797,-1.343855 2.5760902,-2.215199 3.7361547,-2.611899 1.1600645,-0.396701 2.258449,-0.350654 3.5040948,0.195699 2.491293,1.092703 5.49405,4.32539 9.54924,10.046513 1.366037,1.927219 2.691118,3.683152 3.732287,4.968034 0.520585,0.642441 0.969323,1.166627 1.324672,1.542338 0.177675,0.187856 0.330554,0.33825 0.46992,0.455339 0.06968,0.05854 0.135134,0.109164 0.210788,0.155009 0.07566,0.04584 0.154131,0.10029 0.330684,0.110443 0.183323,0.01055 0.33295,-0.08812 0.400302,-0.156946 0.06735,-0.06882 0.09167,-0.119701 0.112162,-0.162759 0.04098,-0.08612 0.05676,-0.149553 0.07349,-0.220888 0.03346,-0.14267 0.0579,-0.31078 0.08315,-0.528968 0.0505,-0.436377 0.09647,-1.058808 0.141169,-1.858169 0.08941,-1.59872 0.170431,-3.901464 0.237861,-6.744824 0.13486,-5.686719 0.218522,-13.53029 0.218522,-22.164332 0,-16.399797 0.01744,-24.714239 0.562744,-29.126168 0.272652,-2.205964 0.674968,-3.409045 1.216377,-4.175551 0.54141,-0.766508 1.25945,-1.169652 2.337998,-1.734162 0.997958,-0.522321 2.651293,-0.506781 4.16353,-0.03488 1.512239,0.471902 2.851584,1.393586 3.330052,2.363885 -0.01257,-0.0255 0.07223,0.239991 0.129566,0.602597 0.05734,0.362607 0.118842,0.860073 0.179846,1.466772 0.122009,1.213398 0.246274,2.871749 0.365493,4.84984 0.23844,3.956181 0.454161,9.191371 0.591752,14.74522 0.232728,9.394127 0.389505,14.44754 0.711649,17.25055 0.16107,1.401505 0.351722,2.247014 0.682641,2.8386 0.330917,0.591586 0.876011,0.86229 1.373016,0.95718 1.229398,0.234717 2.591603,-0.208577 3.219824,-1.195507 0.105608,-0.165913 0.119464,-0.272591 0.152772,-0.424336 0.03331,-0.151744 0.06216,-0.332876 0.09089,-0.550281 0.05747,-0.434813 0.111036,-1.012545 0.162442,-1.726412 0.102812,-1.427734 0.196355,-3.394106 0.274603,-5.762455 0.156497,-4.736698 0.254958,-11.080073 0.259132,-17.893837 0.007,-11.360565 0.0492,-17.587197 0.293942,-21.1218978 0.122373,-1.7673503 0.298225,-2.8593345 0.524068,-3.5593913 0.225842,-0.7000569 0.470719,-1.0074005 0.845083,-1.3447021 1.073868,-0.967557 2.811049,-1.47249568 4.511619,-1.44158259 z"
         style="color:#000000;font-style:normal;font-variant:normal;font-weight:normal;font-stretch:normal;font-size:medium;line-height:normal;font-family:sans-serif;text-indent:0;text-align:start;text-decoration:none;text-decoration-line:none;text-decoration-style:solid;text-decoration-color:#000000;letter-spacing:normal;word-spacing:normal;text-transform:none;direction:ltr;block-progression:tb;writing-mode:lr-tb;baseline-shift:baseline;text-anchor:start;white-space:normal;clip-rule:nonzero;display:inline;overflow:visible;visibility:visible;opacity:1;isolation:auto;mix-blend-mode:normal;color-interpolation:sRGB;color-interpolation-filters:linearRGB;solid-color:#000000;solid-opacity:1;fill-opacity:1;fill-rule:nonzero;stroke:none;stroke-width:1;stroke-linecap:butt;stroke-linejoin:miter;stroke-miterlimit:4;stroke-dasharray:none;stroke-dashoffset:0;stroke-opacity:1;color-rendering:auto;image-rendering:auto;shape-rendering:auto;text-rendering:auto;enable-background:accumulate" />
      <text
         sodipodi:linespacing="125%"
         id="text3415-3"
         y="72.039047"
         x="3.9124107"
         style="font-style:normal;font-variant:normal;font-weight:normal;font-stretch:normal;font-size:40px;line-height:125%;font-family:'STIX Math';-inkscape-font-specification:'STIX Math';letter-spacing:0px;word-spacing:0px;fill:#000000;fill-opacity:1;stroke:none;stroke-width:1px;stroke-linecap:butt;stroke-linejoin:miter;stroke-opacity:1"
         xml:space="preserve"><tspan
           style="font-style:normal;font-variant:normal;font-weight:normal;font-stretch:normal;font-size:12.5px;font-family:'STIX Math';-inkscape-font-specification:'STIX Math'"
           y="72.039047"
           x="3.9124107"
           id="tspan3417-8"
           sodipodi:role="line">1</tspan></text>
      <text
         sodipodi:linespacing="125%"
         id="text3415-1-4"
         y="21.791359"
         x="30.758049"
         style="font-style:normal;font-variant:normal;font-weight:normal;font-stretch:normal;font-size:40px;line-height:125%;font-family:'STIX Math';-inkscape-font-specification:'STIX Math';letter-spacing:0px;word-spacing:0px;fill:#000000;fill-opacity:1;stroke:none;stroke-width:1px;stroke-linecap:butt;stroke-linejoin:miter;stroke-opacity:1"
         xml:space="preserve"><tspan
           style="font-style:normal;font-variant:normal;font-weight:normal;font-stretch:normal;font-size:12.5px;font-family:'STIX Math';-inkscape-font-specification:'STIX Math'"
           y="21.791359"
           x="30.758049"
           id="tspan3417-3-8"
           sodipodi:role="line">2</tspan></text>
      <text
         sodipodi:linespacing="125%"
         id="text3415-1-9-3"
         y="11.781944"
         x="49.714729"
         style="font-style:normal;font-variant:normal;font-weight:normal;font-stretch:normal;font-size:40px;line-height:125%;font-family:'STIX Math';-inkscape-font-specification:'STIX Math';letter-spacing:0px;word-spacing:0px;fill:#000000;fill-opacity:1;stroke:none;stroke-width:1px;stroke-linecap:butt;stroke-linejoin:miter;stroke-opacity:1"
         xml:space="preserve"><tspan
           style="font-style:normal;font-variant:normal;font-weight:normal;font-stretch:normal;font-size:12.5px;font-family:'STIX Math';-inkscape-font-specification:'STIX Math'"
           y="11.781944"
           x="49.714729"
           id="tspan3417-3-3-29"
           sodipodi:role="line">3</tspan></text>
      <text
         sodipodi:linespacing="125%"
         id="text3415-1-9-2-0"
         y="17.781944"
         x="69.714729"
         style="font-style:normal;font-variant:normal;font-weight:normal;font-stretch:normal;font-size:40px;line-height:125%;font-family:'STIX Math';-inkscape-font-specification:'STIX Math';letter-spacing:0px;word-spacing:0px;fill:#000000;fill-opacity:1;stroke:none;stroke-width:1px;stroke-linecap:butt;stroke-linejoin:miter;stroke-opacity:1"
         xml:space="preserve"><tspan
           style="font-style:normal;font-variant:normal;font-weight:normal;font-stretch:normal;font-size:12.5px;font-family:'STIX Math';-inkscape-font-specification:'STIX Math'"
           y="17.781944"
           x="69.714729"
           id="tspan3417-3-3-0-9"
           sodipodi:role="line">4</tspan></text>
      <text
         sodipodi:linespacing="125%"
         id="text3415-1-9-9-1"
         y="32.00605"
         x="89.496277"
         style="font-style:normal;font-variant:normal;font-weight:normal;font-stretch:normal;font-size:40px;line-height:125%;font-family:'STIX Math';-inkscape-font-specification:'STIX Math';letter-spacing:0px;word-spacing:0px;fill:#000000;fill-opacity:1;stroke:none;stroke-width:1px;stroke-linecap:butt;stroke-linejoin:miter;stroke-opacity:1"
         xml:space="preserve"><tspan
           style="font-style:normal;font-variant:normal;font-weight:normal;font-stretch:normal;font-size:12.5px;font-family:'STIX Math';-inkscape-font-specification:'STIX Math'"
           y="32.00605"
           x="89.496277"
           id="tspan3417-3-3-2-9"
           sodipodi:role="line">5</tspan></text>
    </g>
    <rect
       style="fill:none;fill-opacity:1;stroke:#000000;stroke-width:0.20011257;stroke-miterlimit:1;stroke-dasharray:none;stroke-opacity:1"
       id="rect5430"
       width="299.79987"
       height="124.79989"
       x="0.10005628"
       y="927.46228" />
  </g>
</svg>
